<?xml version="1.0" standalone="no"?>
<!DOCTYPE svg PUBLIC "-//W3C//DTD SVG 1.1//EN" "http://www.w3.org/Graphics/SVG/1.1/DTD/svg11.dtd" >
<svg xmlns="http://www.w3.org/2000/svg">
<metadata></metadata>
<defs>
<font id="opendyslexicmonoregular" horiz-adv-x="1499" >
<font-face units-per-em="2048" ascent="1638" descent="-410" />
<missing-glyph horiz-adv-x="500" />
<glyph horiz-adv-x="0" />
<glyph horiz-adv-x="682" />
<glyph />
<glyph />
<glyph unicode=" " />
<glyph unicode="!" d="M618 532q-3 -51 48 -51h170q50 0 47 51l-27 306l-8 606q0 49 -51 49h-95q-48 0 -51 -49l-16 -606zM629 51q-6 -51 47 -51h149q53 0 47 51l-12 156q-3 47 -51 47h-117q-48 0 -51 -47z" />
<glyph unicode="&#x22;" d="M451 956q0 -51 49 -51h100q52 0 49 51l-8 488q0 49 -51 49h-78q-51 0 -51 -49zM852 956q-3 -51 47 -51h102q50 0 50 51l-11 488q0 49 -51 49h-80q-48 0 -51 -49z" />
<glyph unicode="#" d="M-27 465q0 -51 52 -51h258q27 0 38.5 -15t4.5 -41l-76 -303q-6 -26 5.5 -40.5t37.5 -14.5h59q47 0 56 43l81 328q9 43 56 43h241q26 0 37.5 -15t5.5 -41l-75 -303q-6 -26 5.5 -40.5t37.5 -14.5h57q45 0 57 43l82 328q9 43 56 43h313q49 0 49 51v51q0 51 -49 51h-262 q-26 0 -37.5 15t-5.5 41l57 235q12 43 55 43h308q49 0 49 49v56q0 49 -49 49h-256q-26 0 -37.5 14.5t-5.5 40.5l75 303q12 57 -43 57h-59q-43 0 -55 -43l-82 -329q-12 -43 -56 -43h-241q-26 0 -37.5 14.5t-5.5 40.5l76 303q7 27 -4.5 42t-38.5 15h-60q-46 0 -55 -43 l-80 -329q-12 -43 -57 -43h-318q-49 0 -49 -49v-56q0 -49 49 -49h266q27 0 38.5 -14.5t4.5 -40.5l-59 -236q-9 -43 -53 -43h-309q-52 0 -52 -51v-51zM553 623l59 235q9 43 56 43h239q26 0 37.5 -14.5t5.5 -40.5l-57 -236q-12 -43 -55 -43h-242q-26 0 -37.5 15t-5.5 41z" />
<glyph unicode="$" d="M266 152q0 -46 39 -60q154 -64 320 -80q50 -3 47 -53l-17 -199q-6 -50 47 -53h76q52 -3 49 51l-10 201q0 49 47 55q170 22 269 117t102 250q-8 148 -98 229t-291 121q-48 9 -45 55l6 367q0 52 51 49q133 -16 240 -65q26 -12 41.5 -3t15.5 37l2 50q0 43 -41 57 q-121 37 -258 49q-50 3 -47 53v133q3 49 -47 52q-51 0 -51 -49l-2 -138q-3 -47 -52 -53q-181 -19 -278 -109t-100 -243q6 -143 91 -229t269 -128q45 -9 45 -55l-4 -299q-3 -50 -53 -47q-152 16 -299 98q-26 15 -43 6t-19 -38zM424 973q0 78 56.5 137t156.5 82q25 4 39 -8.5 t14 -38.5l-8 -340q0 -26 -15 -37.5t-40 -5.5q-99 26 -151 80t-52 131zM793 520q0 27 15 38.5t42 4.5q186 -52 186 -201q0 -72 -43 -102t-139 -47q-53 -6 -53 45z" />
<glyph unicode="%" d="M119 1352q0 -188 93 -298t253 -110q159 0 252.5 110t93.5 298q0 187 -93.5 296t-252.5 109q-158 0 -252 -109.5t-94 -295.5zM182 -11.5q9 -17.5 39 -17.5h53q40 0 60 33l885 1456q15 25 6 42.5t-39 17.5h-51q-40 0 -60 -33l-887 -1456q-15 -25 -6 -42.5zM279 1358 q0 128 49 200t137 72q86 0 135 -73t49 -199q0 -122 -45.5 -168.5t-138.5 -46.5q-94 0 -140 46.5t-46 168.5zM690 297q0 -188 93 -298t253 -110q157 0 250.5 110.5t93.5 297.5q0 186 -93 295.5t-251 109.5q-159 0 -252.5 -109t-93.5 -296zM852 315q0 123 49 191.5t135 68.5 t135.5 -69.5t49.5 -190.5q0 -114 -46 -157t-139 -43t-138.5 43t-45.5 157z" />
<glyph unicode="&#x26;" d="M100 461q0 -212 150 -343.5t397 -146.5q80 -5 176 30.5t189 107.5q39 31 69 -3l86 -88q24 -24 62 -24h129q34 0 41.5 18t-15.5 43l-188 191q-29 29 -4 69q59 94 82.5 192.5t34.5 233.5q3 25 -9.5 39.5t-37.5 14.5h-84q-51 0 -54 -50q-7 -92 -21 -157.5t-46 -126.5 q-12 -26 -32 -27.5t-38 19.5l-446 501q-14 16 -40 45.5t-37 42.5t-24.5 30.5t-19.5 29.5q-31 51 -31 100q0 89 66 145t172 56q19 0 37.5 -3t30.5 -6t33 -13t29 -14t36 -20.5t38 -21.5q48 -27 70 21l25 49q11 22 4 40t-31 25q-124 46 -223 60q-175 25 -290.5 -83.5 t-115.5 -275.5q0 -97 70 -209q25 -41 -10 -69q-230 -187 -230 -422zM244 510q0 158 139 297q37 37 72 -2l405 -477q35 -41 -6 -72q-63 -46 -127.5 -69.5t-108.5 -18.5q-166 15 -270 106.5t-104 235.5z" />
<glyph unicode="'" d="M621 991q-5 -25 7 -39t38 -14h165q23 0 36.5 13t13.5 36v457q0 49 -50 49h-73q-47 0 -56 -45z" />
<glyph unicode="(" d="M496 680q0 -447 174 -897q14 -38 55 -41l102 -8q29 -2 40 13.5t-1 43.5q-87 203 -121 409t-45 464q17 413 293 827q17 25 9 42t-37 19l-54 7q-39 3 -61 -29q-317 -427 -354 -850z" />
<glyph unicode=")" d="M498 -214.5q9 -16.5 39 -18.5l118 -9q42 -3 62 33q68 127 111 216.5t88 203t66.5 220t21.5 210.5q0 235 -45 454.5t-156 442.5q-17 36 -58 39l-51 4q-30 3 -41 -13t0 -44q88 -209 123 -420t35 -447q-40 -427 -305 -829q-17 -26 -8 -42.5z" />
<glyph unicode="*" d="M287 1213q6 -18 30 -25l263 -107q31 -10 32 -31t-28 -34l-242 -133q-48 -25 -16 -68l36 -53q32 -43 70 -8l197 159q25 20 42 12t17 -40v-244q0 -26 14.5 -37.5t40.5 -5.5l54 8q47 9 41 58l-27 223q-3 31 14 41.5t43 -4.5l230 -140q42 -25 69 15l37 53q32 46 -20 68 l-271 104q-31 12 -32 32.5t28 35.5l250 135q36 19 33 61l-4 33q-4 29 -21.5 37.5t-42.5 -6.5l-262 -170q-25 -17 -42 -8t-17 40v248q0 26 -14.5 37.5t-40.5 5.5l-54 -12q-45 -12 -39 -59l25 -213q3 -32 -13 -43t-44 6l-228 137q-43 25 -67 -16l-33 -52q-14 -22 -8 -40z" />
<glyph unicode="+" d="M109 606q0 -49 51 -49h456q50 0 50 -49v-459q0 -49 51 -49h67q23 0 36.5 13t13.5 36v459q0 49 51 49h456q50 0 50 49v72q0 49 -50 49h-456q-51 0 -51 49v459q0 49 -50 49h-67q-51 0 -51 -49v-459q0 -49 -50 -49h-456q-51 0 -51 -49v-72z" />
<glyph unicode="," d="M584 -231q-8 -26 3.5 -42t39.5 -16h30q40 0 60 33l182 260q21 30 21 62v129q0 49 -52 49h-149q-51 0 -51 -49v-132q0 -27 -9 -61z" />
<glyph unicode="-" d="M475 532l12 76q6 45 54 45l438 9q26 1 38 -13t7 -41l-10 -73q-9 -48 -53 -48l-439 -8q-26 0 -38.5 14t-8.5 39z" />
<glyph unicode="." d="M594 51q-3 -51 47 -51h199q50 0 53 47l12 234q3 51 -49 51h-197q-50 0 -53 -47z" />
<glyph unicode="/" d="M403 -133q-8 -27 3 -43t38 -17l127 -4q44 0 58 41l469 1569q8 26 -3.5 41.5t-39.5 15.5l-49 3q-42 3 -58 -39z" />
<glyph unicode="0" d="M233 745q0 -379 128 -576.5t378 -197.5q251 0 384.5 197.5t142.5 576.5q0 380 -127.5 577.5t-378.5 197.5q-250 0 -383 -197.5t-144 -577.5zM446 891q0 549 314 549q313 0 313 -549q-21 -280 -100.5 -414.5t-233.5 -134.5t-223.5 131.5t-69.5 417.5zM643 840q0 39 2 69 t8.5 62t18 52.5t31.5 34t47 13.5q61 0 82.5 -57t21.5 -174q0 -32 -4.5 -60t-15 -56t-32 -44t-52.5 -16q-39 0 -64.5 29.5t-34 66.5t-8.5 80z" />
<glyph unicode="1" d="M305 1292q0 -54 55 -45l250 51q26 5 41 -7t15 -38v-923q0 -49 -52 -49h-229q-49 0 -49 -52v-180q0 -49 49 -49h760q49 0 49 49v180q0 52 -49 52h-230q-51 0 -51 49v1114q0 49 -49 49h-123q-24 0 -59 -6l-283 -57q-45 -9 -45 -54v-84z" />
<glyph unicode="2" d="M276 49q0 -49 50 -49h848q51 0 51 49v191q0 51 -51 51h-383q-28 0 -40.5 15.5t-0.5 39.5q43 104 147 211q36 38 74 78t58 61t28 29q90 111 125 193.5t35 175.5q0 195 -138 310.5t-370 115.5q-162 0 -383 -84q-39 -14 -39 -58v-94q0 -29 15.5 -38.5t43.5 3.5 q201 101 367 101q133 0 217 -75t84 -194q0 -71 -39 -147q-42 -85 -120 -169t-245 -210q-204 -158 -305 -242q-29 -23 -29 -59v-205z" />
<glyph unicode="3" d="M258 88q0 -42 41 -57q195 -60 358 -60q283 0 433.5 122.5t150.5 361.5q0 133 -67.5 225.5t-188.5 116.5q-25 6 -25 10.5t23 13.5q108 38 165.5 119.5t57.5 192.5q0 179 -133.5 283t-363.5 104q-162 0 -363 -52q-43 -12 -43 -57v-55q0 -27 15 -38t42 -3q179 55 330 55 q153 0 234.5 -61.5t81.5 -175.5q0 -112 -79.5 -172t-228.5 -60h-131q-51 0 -51 -49v-68q0 -49 51 -49h123q160 0 255 -72.5t95 -179.5q0 -52 -98 -137q-103 -86 -291 -86q-178 0 -334 70q-26 12 -42.5 3t-16.5 -38v-207z" />
<glyph unicode="4" d="M207 471q0 -49 49 -49h553q49 0 49 -51l-16 -320q0 -51 49 -51h170q49 0 49 51l-16 320q-3 51 49 51h100q51 0 51 49v70q0 49 -51 49h-102q-48 0 -51 51l-9 803q0 49 -51 49h-164q-39 0 -59 -33l-582 -885q-18 -26 -18 -63v-41zM402 607q-9 17 8 42l407 641 q22 31 42 25.5t20 -43.5l-9 -631q0 -51 -51 -51h-377q-31 0 -40 17z" />
<glyph unicode="5" d="M266 80q0 -45 43 -57q183 -52 350 -52q274 0 424 133t150 375q0 234 -146.5 371t-396.5 137q-54 0 -139 -16q-26 -6 -40.5 5.5t-14.5 37.5v278q0 51 49 51h528q49 0 49 50v51q0 49 -49 49h-692q-51 0 -51 -49v-637q0 -29 15.5 -39.5t41.5 0.5q137 49 268 49 q176 0 271.5 -77t95.5 -230q0 -39 -25.5 -83.5t-70.5 -83.5t-117 -65t-154 -26q-177 0 -329 67q-26 12 -43 2.5t-17 -38.5v-203z" />
<glyph unicode="6" d="M233 745q0 -377 138 -575.5t397 -198.5q226 0 362 139t136 369q0 235 -131 371.5t-355 136.5q-180 0 -297 -123q-22 -23 -33 -18t-8 37q26 235 130 351t290 116q124 0 248 -50q28 -11 43.5 -0.5t15.5 39.5v78q0 43 -41 58q-139 45 -274 45q-283 0 -452 -211t-169 -564z M473 479q0 161 80 254.5t215 93.5t215 -93.5t80 -254.5q0 -101 -80 -160t-215 -59t-215 59t-80 160z" />
<glyph unicode="7" d="M274 1393q0 -23 13.5 -36.5t38.5 -13.5h653q30 0 40.5 -15.5t-1.5 -43.5l-561 -1227q-12 -26 -1 -41.5t40 -15.5h254q40 0 55 43l412 1333q8 23 8 62v6q0 49 -49 49h-850q-52 0 -52 -49v-51z" />
<glyph unicode="8" d="M217 420q0 -214 142 -331.5t391 -117.5q250 0 391 117t141 332q0 128 -74 222t-200 138q-25 7 -25 14.5t23 16.5q200 80 200 322q0 164 -119.5 265t-336.5 101q-216 0 -336.5 -101t-120.5 -265q0 -116 50.5 -198.5t150.5 -123.5q17 -6 22 -11.5t0 -10.5t-22 -11 q-127 -42 -202 -136t-75 -222zM440 440q0 135 82.5 212t227.5 77t228 -77t83 -212q0 -80 -87.5 -149.5t-223.5 -69.5t-223 68.5t-87 150.5zM473 1174q0 99 74.5 163t202.5 64t202 -64t74 -163q0 -116 -73 -181t-203 -65t-203.5 65t-73.5 181z" />
<glyph unicode="9" d="M266 1012q0 -113 31.5 -189t92.5 -114.5t131 -53t167 -14.5q96 0 188 21t146 61q26 21 35 17.5t6 -35.5q-13 -112 -70.5 -199.5t-145.5 -141t-196 -81t-229 -27.5q-27 0 -42 -18.5t-15 -47.5v-167q0 -44 41 -58q190 0 341 46.5t260.5 140.5t168.5 244t59 349 q0 380 -136.5 577.5t-396.5 197.5q-184 0 -310 -141t-126 -367zM387 1044q0 170 69.5 259.5t227.5 89.5q166 0 263 -94t97 -255q0 -52 -24.5 -86.5t-73.5 -53.5t-111.5 -26.5t-150.5 -7.5q-164 0 -230.5 39t-66.5 135z" />
<glyph unicode=":" d="M621 49q0 -49 49 -49h161q50 0 50 49v207q0 49 -50 49h-161q-49 0 -49 -49v-207zM621 866q0 -51 49 -51h161q50 0 50 51v185q0 51 -50 51h-161q-49 0 -49 -51v-185z" />
<glyph unicode=";" d="M594 -272q-6 -26 5.5 -41t37.5 -15h45q42 0 59 35l150 291q14 28 14 61v109q0 49 -51 49h-133q-49 0 -49 -49v-111q0 -32 -8 -59zM666 854q0 -51 51 -51h141q51 0 51 51v193q0 49 -51 49h-141q-51 0 -51 -49v-193z" />
<glyph unicode="&#x3c;" d="M86 633q-3 -43 35 -60l1143 -530q25 -12 41.5 -2.5t17.5 37.5l12 137q6 43 -35 61l-868 396q-32 13 -31 34.5t35 28.5l926 242q42 9 45 51l6 80q3 28 -11 39.5t-42 5.5l-1217 -326q-42 -12 -45 -53z" />
<glyph unicode="=" d="M109 401q0 -49 51 -49h1181q50 0 50 49v101q0 51 -50 51h-1181q-51 0 -51 -51v-101zM109 811q0 -49 51 -49h1181q50 0 50 49v70q0 49 -50 49h-1181q-51 0 -51 -49v-70z" />
<glyph unicode="&#x3e;" d="M86 199q-2 -28 12.5 -40t40.5 -5l1219 323q42 12 45 53l12 142q3 45 -37 59l-1140 533q-25 12 -42 2.5t-20 -37.5l-6 -78q-3 -44 35 -61l866 -398q21 -9 27.5 -22t-2 -24.5t-29.5 -16.5l-924 -240q-42 -12 -45 -53z" />
<glyph unicode="?" d="M356 1321q0 -30 18 -39t44 6q165 98 295 98q95 0 159.5 -57.5t75.5 -140.5q5 -31 -6 -60q-12 -34 -42.5 -64.5t-106.5 -92.5l-101 -88q-86 -83 -115.5 -153t-29.5 -175v-104q0 -50 51 -50h160q51 0 51 50v73q0 62 2 82q7 63 37 103l31 47q28 43 34 49l60 63 q90 98 131 164t41 135q0 159 -107.5 256t-289.5 97t-357 -93q-35 -20 -35 -61v-45zM541 41q0 -51 51 -51h162q51 0 51 51v182q0 51 -51 51h-162q-51 0 -51 -51v-182z" />
<glyph unicode="@" d="M-135 543q0 -188 67 -352.5t195 -290.5q265 -256 641 -256q292 0 535 174q37 24 18 67l-47 90q-22 48 -68 19q-193 -127 -438 -127q-165 0 -291.5 41.5t-226.5 140.5q-71 75 -111.5 125.5t-73.5 109.5t-46 119.5t-13 139.5q0 193 88.5 358t245.5 268q198 129 444 129 q177 0 326.5 -69.5t253.5 -200.5q127 -157 127 -375q0 -159 -67 -265.5t-189 -143.5q-26 -7 -40.5 4.5t-14.5 38.5v631q0 49 -50 49h-43q-51 0 -51 -25v-22q0 -34 -15 -40t-40 17q-110 90 -262 90q-171 0 -279 -125t-108 -325q0 -199 107.5 -324t279.5 -125q155 0 262 88 q25 23 40 17.5t15 -37.5v-35q0 -38 54 -35q257 20 400.5 170.5t143.5 400.5q0 251 -153 451q-123 160 -304.5 247t-394.5 87q-189 0 -357.5 -67.5t-297.5 -194.5q-126 -125 -194 -289.5t-68 -347.5zM463 618q0 126 71 200.5t191 74.5q123 0 194.5 -74.5t71.5 -200.5 q0 -127 -70 -200.5t-194 -73.5q-123 0 -193.5 73t-70.5 201z" />
<glyph unicode="A" d="M88 57q-4 -12 -4 -22q0 -12 6 -20q10 -15 39 -15h168q41 0 55 41l49 162q15 41 58 41h583q47 0 56 -45l37 -156q9 -43 55 -43h182q28 0 38 16q5 8 6 18q0 10 -5 23l-551 1397q-14 39 -57 39h-105q-43 0 -57 -39zM496 539l223 673q7 22 19 30q6 4 12.5 4t12.5 -4 q12 -8 19 -30l224 -673q4 -12 4 -21q0 -12 -6 -21q-11 -16 -39 -16h-428q-28 0 -39 16q-6 9 -6 21q0 9 4 21z" />
<glyph unicode="B" d="M211 49q0 -49 49 -49h488q252 0 397 110t145 308q0 145 -82 241.5t-250 135.5q-25 6 -25 10t25 12q199 59 199 307q0 177 -124.5 273t-354.5 96h-418q-49 0 -49 -49v-1395zM414 346v318q0 49 49 49h274q161 0 242 -66q78 -69 78 -117q0 -134 -74.5 -183.5t-245.5 -49.5 h-274q-49 0 -49 49zM414 928v379q0 51 49 51h250q144 0 218.5 -69t74.5 -187q0 -225 -293 -225h-250q-49 0 -49 51z" />
<glyph unicode="C" d="M147 745q0 -359 196 -566.5t534 -207.5q245 0 442 123q33 20 33 60v233q0 32 -17.5 40t-42.5 -11q-180 -140 -403 -140q-265 0 -395 107.5t-134 361.5q0 296 136.5 452.5t392.5 156.5q223 0 403 -137q25 -21 42.5 -13.5t17.5 39.5v96q0 42 -33 60q-190 121 -442 121 q-338 0 -534 -208t-196 -567z" />
<glyph unicode="D" d="M174 49q0 -49 49 -49h367q737 0 737 748q0 745 -737 745h-367q-49 0 -49 -49v-1395zM387 426v852q0 49 49 49h195q228 0 357 -134t136 -394q0 -31 -8 -62q-50 -208 -155.5 -284t-329.5 -76h-195q-49 0 -49 49z" />
<glyph unicode="E" d="M268 49q0 -49 51 -49h863q49 0 49 49v211q0 49 -49 49h-662q-49 0 -49 51v302q0 49 49 49h613q49 0 49 51v69q0 50 -49 50h-613q-49 0 -49 51v342q0 49 49 49h643q49 0 49 49v72q0 49 -49 49h-844q-51 0 -51 -49v-1395z" />
<glyph unicode="F" d="M322 51q0 -51 51 -51h149q49 0 49 51l-16 572q0 51 49 51h471q49 0 49 49v111q0 49 -49 49h-481q-49 0 -49 51l16 330q0 49 51 49h516q52 0 52 51v80q0 49 -52 49h-718q-50 0 -50 -49z" />
<glyph unicode="G" d="M147 745q0 -152 18 -265.5t62.5 -208.5t118 -156t184.5 -98t263 -46q24 -1 49 -1q245 0 479 147q31 19 31 61v522q0 50 -49 50h-482q-49 0 -49 -50v-116q0 -49 49 -49h250q51 0 51 -52v-73q0 -43 -28 -60q-85 -53 -283 -53q-119 0 -198 21.5t-136 75t-84.5 144 t-32.5 228.5q0 292 125.5 450t325.5 158q237 0 442 -143q25 -20 42.5 -11.5t17.5 40.5v79q0 40 -33 60q-213 121 -487 121q-134 0 -251.5 -53.5t-205 -151t-138.5 -245t-51 -325.5z" />
<glyph unicode="H" d="M172 49v-5q0 -44 49 -44h131q51 0 51 49v402q0 51 50 51h594q51 0 51 -51v-402q0 -49 49 -49h133q23 0 35.5 13t11.5 36l-16 1395q-3 49 -51 49h-113q-49 0 -49 -49v-613q0 -51 -51 -51h-594q-50 0 -50 51v613q0 49 -51 49h-110q-52 0 -52 -49z" />
<glyph unicode="I" d="M633 51v-5q0 -46 49 -46h137q49 0 49 46v5q-10 209 -15 422t-8 547t-3 424q0 49 -51 49h-72q-48 0 -51 -49q-1 -85 -5 -335.5t-6.5 -374t-8.5 -321.5t-15 -362z" />
<glyph unicode="J" d="M238 -147l2 -226q3 -47 49 -53l69 -6q161 3 259.5 51.5t151 156t60.5 287.5l62 1369v6q0 44 -47 47l-113 8q-48 0 -51 -49l-82 -1368q-5 -67 -61.5 -120.5t-165.5 -66.5q-23 -2 -62 5l-16 4q-26 6 -40.5 -5.5t-14.5 -39.5z" />
<glyph unicode="K" d="M170 51q0 -51 49 -51h162q47 0 47 45v6l-31 553q-2 37 18 44.5t42 -21.5l420 -596q19 -31 59 -31h350q34 0 42 19q2 5 2 10q0 15 -17 32l-697 701q-17 17 -17 34.5t17 34.5l639 601q25 23 18 42t-42 19h-133q-36 0 -64 -25l-579 -546q-25 -23 -44 -15.5t-18 41.5l17 494 q0 51 -50 51h-102q-49 0 -49 -49z" />
<glyph unicode="L" d="M283 49v-5q0 -44 49 -44h821q46 0 49 47l15 211v5q0 46 -50 46h-624q-49 0 -49 51l10 1084q0 49 -51 49h-103q-48 0 -51 -49z" />
<glyph unicode="M" d="M98 51v-5q0 -46 49 -46h175q49 0 49 46v5l-31 1071q-1 32 22 37t31 -26l221 -875q8 -41 58 -41h155q50 0 58 41l221 875q8 31 31 26t22 -37l-31 -1071v-5q0 -46 50 -46h174q51 0 51 51l-29 1393q-3 49 -51 49h-190q-44 0 -58 -39l-293 -770q-10 -31 -32.5 -31t-32.5 31 l-273 770q-14 39 -59 39h-209q-49 0 -49 -49z" />
<glyph unicode="N" d="M176 51v-5q0 -46 49 -46h156q47 0 47 45v6l-49 1059q-3 38 17.5 44t39.5 -28l578 -1089q16 -37 59 -37h203q49 0 49 49v1395q0 49 -49 49h-88q-49 0 -49 -49l-27 -1041q-2 -37 -22 -41.5t-39 27.5l-566 1038q-17 35 -59 35h-162q-48 0 -51 -49z" />
<glyph unicode="O" d="M109 745q0 -352 177.5 -563t465.5 -211q286 0 462.5 211.5t176.5 562.5t-176.5 563t-462.5 212q-288 0 -465.5 -212t-177.5 -563zM322 745q0 280 118.5 445.5t311.5 165.5q191 0 308.5 -165.5t117.5 -445.5q0 -91 -20.5 -159.5t-56.5 -112t-90.5 -70.5t-117 -38 t-141.5 -11q-101 0 -175.5 18t-134 61t-90 121t-30.5 191z" />
<glyph unicode="P" d="M244 51q0 -51 49 -51h141q51 0 51 49l17 481q3 50 51 50h195q249 0 378 121.5t129 345.5q0 220 -128 333t-379 113h-398q-48 0 -51 -49zM496 897l16 461q0 49 51 49h205q151 0 233 -73t82 -208t-82 -207.5t-233 -72.5h-223q-49 0 -49 51z" />
<glyph unicode="Q" d="M74 745q0 -355 174 -564.5t477 -209.5q27 0 45 2q43 0 66 -26l161 -183q22 -28 62 -28h323q33 0 42 18q2 5 2 10q0 15 -17 33l-227 254q-17 18 -17 37q0 17 15 35q46 55 80 108.5t67.5 129t51.5 173.5t18 211q0 353 -181 564t-481 211t-480.5 -211t-180.5 -564zM287 745 q0 282 121.5 446.5t326.5 164.5q206 0 327.5 -164.5t121.5 -446.5q0 -109 -26 -166.5t-103 -109.5q-30 -19 -62.5 -19t-52 9t-59.5 33t-56 32q-15 7 -28 7q-24 0 -39 -25q-19 -28 -34 -54.5t-22 -38t-13 -22t-13 -12.5q-6 -2 -13 -2q-2 0 -3 1q-9 0 -29 3l-53 6q-31 4 -54 8 t-55.5 15t-55.5 26.5t-48.5 42.5t-41 62.5t-26 87.5t-10.5 116z" />
<glyph unicode="R" d="M180 49q0 -49 49 -49h144q49 0 49 49v533q0 49 49 49h100q123 0 192.5 -50t141.5 -198l135 -344q14 -39 58 -39h180q29 0 39 16q4 7 4 16q0 12 -8 27l-174 349q-106 208 -203 270q-22 12 -21.5 21.5t23.5 21.5q84 45 130 132t46 210q0 214 -124 322t-353 108h-408 q-49 0 -49 -49v-1395zM401 887v450q0 49 52 49h202q50 0 93 -9t85 -31.5t72 -58t48 -93t18 -131.5q0 -89 -98.5 -157t-217.5 -68h-202q-52 0 -52 49z" />
<glyph unicode="S" d="M223 1094q0 -170 102 -267t328 -141l123 -24q144 -29 216.5 -89.5t72.5 -126.5q0 -73 -99 -136.5t-261 -63.5q-206 0 -414 106q-26 14 -44 4t-18 -39v-208q0 -43 43 -58q232 -80 433 -80q281 0 426 112t145 329q0 183 -107.5 291t-332.5 151l-123 25q-163 30 -224 80.5 t-61 150.5q0 118 89.5 182t254.5 64q162 0 354 -82q26 -12 43 -1.5t17 38.5v90q0 47 -41 55q-204 64 -395 64q-246 0 -386.5 -114t-140.5 -312z" />
<glyph unicode="T" d="M119 1374q0 -49 46 -49h5l428 16q49 0 49 -51l-47 -1239q0 -51 49 -51h203q47 0 47 45v6l-45 1239q0 51 49 51l428 -16h5q46 0 46 49v70q0 49 -51 49h-1163q-49 0 -49 -49v-70z" />
<glyph unicode="U" d="M168 1444l10 -883q3 -292 147.5 -441t426.5 -149q281 0 424.5 149t146.5 441l8 883q0 49 -49 49h-113q-49 0 -49 -51l8 -717v-15q0 -225 -88 -329q-92 -107 -288 -107q-198 0 -290 107q-90 104 -89 329v15l8 717q0 51 -49 51h-115q-49 0 -49 -49z" />
<glyph unicode="V" d="M156 1436l415 -1395q11 -41 58 -41h243q47 0 58 41l413 1395q4 13 4 23q0 34 -44 34h-107q-45 0 -57 -39l-357 -999q-10 -31 -32.5 -31t-32.5 31l-355 999q-12 39 -57 39h-108q-27 0 -38 -15q-6 -9 -6 -21q0 -10 3 -21z" />
<glyph unicode="W" d="M100 1438l84 -1393q3 -45 56 -45h227q43 0 59 37l187 397q10 22 21 30t22 0t20 -30l178 -395q17 -39 58 -39h209q49 0 55 43l133 1395v6q0 49 -45 49h-94q-52 0 -58 -43l-102 -961q-3 -34 -27 -35t-39 31l-198 422q-17 35 -60 35h-96q-42 0 -59 -35l-221 -415 q-12 -21 -28 -27.5t-27.5 3t-12.5 30.5l-47 952q0 21 -16 32t-39 11h-95q-45 0 -45 -49v-6z" />
<glyph unicode="X" d="M145 18q9 -18 41 -18h211q42 0 62 35l258 440q13 26 33 26t34 -26l256 -440q20 -35 62 -35h213q31 0 39 18q3 6 3 12q0 14 -11 31l-426 601q-12 19 -12 37q0 16 10 32l403 703q15 26 5.5 42.5t-40.5 16.5h-106q-42 0 -62 -35l-317 -540q-15 -26 -35 -26t-35 26l-315 540 q-20 35 -62 35h-108q-29 0 -39 -16.5t4 -42.5l391 -701q9 -16 9 -32q0 -19 -13 -37l-442 -603q-14 -18 -14 -32q0 -6 3 -11z" />
<glyph unicode="Y" d="M148 1476q-5 -7 -5 -16q0 -11 7 -26l444 -893q14 -32 14 -64v-428q0 -49 51 -49h172q52 0 52 49v428q0 32 14 64l453 893q8 15 8 27q0 9 -4 15q-10 17 -39 17h-113q-40 0 -57 -35l-359 -665q-14 -26 -33.5 -26t-33.5 26l-363 665q-17 35 -57 35h-113q-29 0 -38 -17z" />
<glyph unicode="Z" d="M125 49q0 -49 49 -49h1131q51 0 51 49v201q0 49 -51 49h-844q-32 0 -40.5 19t13.5 42l844 953q25 28 25 61v70q0 49 -52 49h-1073q-49 0 -49 -49v-72q0 -49 49 -49h789q34 0 41.5 -18t-15.5 -43l-843 -953q-25 -28 -25 -61v-199z" />
<glyph unicode="[" d="M510 -219q-3 -51 47 -51h344q49 0 49 51v123q0 49 -49 49h-139q-51 0 -51 49l41 1362q0 49 49 49h139q51 0 51 49v43q0 51 -51 51h-324q-51 0 -51 -49z" />
<glyph unicode="\" d="M262 1436l742 -1602q10 -23 21.5 -33.5t33.5 -11.5l135 -4q29 0 42 15t1 40l-807 1606q-11 23 -22.5 33t-32.5 10l-70 2q-27 2 -41 -14t-2 -41z" />
<glyph unicode="]" d="M481 1462q0 -49 49 -49h140q45 0 51 -49l115 -1370q3 -22 -33.5 -36.5t-67.5 -14.5h-137q-51 0 -51 -49v-113q0 -51 51 -51h371q52 0 49 53l-111 1724q-3 49 -51 49h-326q-49 0 -49 -51v-43z" />
<glyph unicode="^" d="M155 955q8 -19 42 -19h186q37 0 59 31l273 376q15 22 34.5 22t34.5 -22l275 -376q19 -31 59 -31h185q34 0 42.5 19t-16.5 42l-475 471q-25 25 -61 25h-84q-36 0 -64 -25l-475 -471q-23 -23 -15 -42z" />
<glyph unicode="_" d="M217 -313v-80q0 -49 51 -49h965q49 0 49 49v80q0 49 -49 49h-965q-51 0 -51 -49z" />
<glyph unicode="`" d="M544 1701.5q-10 -16.5 5 -42.5l153 -281q18 -35 60 -35h156q32 0 40.5 18t-10.5 44l-213 283q-24 30 -61 30h-90q-30 0 -40 -16.5z" />
<glyph unicode="a" d="M276 326q0 189 127 285t377 96h209q49 0 49 18q0 130 -79 203.5t-238 83.5q-156 0 -303 -64q-26 -12 -43 -2.5t-17 37.5v43q0 42 41 57q177 64 340 64q244 0 364 -125.5t120 -382.5v-590q0 -49 -49 -49h-84q-52 0 -52 49v23q0 34 -15 39.5t-40 -19.5q-121 -121 -332 -121 q-170 0 -272.5 97t-102.5 258zM432 406q-1 -8 -1 -16q0 -24 7 -44q21 -59 78 -76.5t164 -17.5q73 0 117 9.5t77.5 39t47 83t14.5 140.5q0 47 -49 47h-117q-184 0 -257 -37.5t-81 -127.5z" />
<glyph unicode="b" d="M260 1503v6q0 20 11 33q13 14 38 14h82q49 0 49 -46v-5l-14 -446q-1 -34 12.5 -39t36.5 20q104 107 305 107q204 0 331.5 -162.5t127.5 -425.5t-127.5 -425.5t-331.5 -162.5q-108 0 -183.5 15t-124 46.5t-77 71.5t-49.5 99q-18 38 -30 204.5t-28 529t-28 566.5zM512 592 q12 -94 22.5 -136t42 -85.5t89.5 -57.5t157 -14q127 8 198 66t97 204q4 25 4 64q-11 184 -86 283.5t-213 99.5q-147 0 -229 -111t-82 -313z" />
<glyph unicode="c" d="M307 559q0 -270 149 -429t402 -159q158 0 297 56q37 14 37 53v6l-2 184q0 27 -15 36.5t-42 0.5q-30 -10 -67 -15t-61.5 -5t-70.5 1t-64 1q-183 9 -264 68t-94 202q0 207 95 324.5t272 117.5q131 0 256 -55q26 -12 42.5 -2.5t16.5 37.5v57q0 44 -39 58q-131 51 -285 51 q-262 0 -412.5 -157t-150.5 -431z" />
<glyph unicode="d" d="M240 559q0 264 127 426t331 162q197 0 308 -123q22 -28 38 -24t17 38l14 469q0 49 51 49h84q50 0 50 -46v-5l-19 -1456q0 -49 -49 -49h-84q-51 0 -51 49v29q0 34 -15 38t-38 -22q-108 -123 -306 -123q-204 0 -331 162t-127 426zM373 610q0 -38 4 -61q26 -130 96 -187 t207 -57q79 0 128.5 10.5t89 41t57.5 88t20 149.5q-9 420 -291 420q-139 0 -222 -107.5t-89 -296.5z" />
<glyph unicode="e" d="M236 526q0 -262 151 -404t422 -151q174 0 377 62q37 11 37 51v6l-2 150q0 40 -33 40q-11 0 -25 -4q-53 -15 -118.5 -22.5t-105.5 -8.5t-124 -1q-56 3 -92.5 6.5t-79 11.5t-69.5 20.5t-55 33.5t-44.5 50t-28.5 70.5t-16 95.5v6q0 46 49 46h735q50 0 50 51v18 q-19 242 -136.5 363.5t-341.5 130.5q-249 0 -394 -169.5t-156 -451.5zM455 786q24 100 115.5 182.5t215.5 82.5q56 0 107 -24.5t88.5 -64.5t64.5 -83t44 -88q4 -10 4 -19q0 -12 -8 -21q-12 -16 -39 -16l-545 -2q-27 1 -40 15q-9 10 -9 24q0 6 2 14z" />
<glyph unicode="f" d="M317 987q0 -49 52 -49h206q25 0 39 -13.5t11 -37.5l-70 -836q-1 -5 -1 -10q0 -41 48 -41h209q49 0 49 51l-26 836q0 51 49 51h250q49 0 49 49v82q0 51 -49 51h-252q-51 0 -54 47l-6 52q1 125 8 197t25 108t38.5 45.5t59.5 9.5l113 -14q5 -1 10 -1q43 0 43 48v53 q0 45 -47 51l-117 15q-56 0 -99.5 -12.5t-85 -47.5t-69 -93t-45 -154t-18.5 -226l-4 -31q-6 -47 -53 -47h-211q-52 0 -52 -51v-82z" />
<glyph unicode="g" d="M240 573q0 -259 126 -416t332 -157q177 0 293 104q42 37 42 2q0 -14 -11 -86q-35 -234 -118 -340t-228 -106q-138 0 -262 55q-26 12 -43 2.5t-17 -37.5v-221q0 -43 41 -55q139 -45 310 -45q110 0 188 22.5t142 78.5t103.5 155t63 248.5t29.5 361.5l29 930q0 51 -50 51 h-86q-47 0 -53 -43l-4 -43q-3 -33 -20 -37t-39 23q-109 127 -310 127q-206 0 -332 -157.5t-126 -416.5zM350 584q0 200 83 310t231 110q149 0 231 -109.5t82 -310.5q0 -56 -8 -99t-21.5 -73t-37.5 -51t-48 -33t-61.5 -18.5t-70.5 -8.5t-81 -2q-55 0 -89 2.5t-69.5 12.5 t-55.5 28.5t-38.5 50.5t-29 78.5t-17.5 112.5z" />
<glyph unicode="h" d="M244 51v-5q0 -46 49 -46h164q49 0 49 51l-19 582q0 167 87 271t235 104q131 0 193 -77q56 -69 56 -225q0 -17 -1 -36l-29 -619v-5q0 -46 49 -46h131q49 0 49 46v5l-18 625q0 232 -98.5 351.5t-290.5 119.5q-187 0 -305 -127q-25 -26 -40.5 -21t-15.5 39l17 672v5 q0 46 -49 46h-84q-48 0 -51 -49z" />
<glyph unicode="i" d="M551 41q-2 -8 -2 -14q-1 -15 9 -24q14 -13 42 -13h272q26 0 42 14q9 9 10 21q0 8 -4 18q-46 114 -63 290q-12 120 -12 242q0 57 3 115q8 182 35 369q4 24 -9.5 37.5t-39.5 13.5h-168q-26 0 -42.5 -13t-9.5 -32q27 -78 43.5 -145.5t25.5 -121.5q7 -45 7 -94v-22 q-2 -60 -6.5 -104t-20.5 -113t-29.5 -118.5t-39 -142t-43.5 -163.5zM645 1384q0 -51 49 -51h103q49 0 49 46v5l-6 134q0 49 -52 49h-86q-48 0 -51 -49z" />
<glyph unicode="j" d="M182 -668q0 -48 49 -51h52q88 3 178 53t160.5 128t118.5 182t55 209l88 1210q1 23 -11.5 36t-35.5 13l-158 4q-51 0 -51 -49l-15 -973q-1 -105 -24.5 -186.5t-58.5 -129.5t-83 -79.5t-90.5 -44t-89.5 -16.5h-28q-25 1 -38.5 -12t-13.5 -38zM672 1374v-5q0 -46 49 -46h82 q49 0 49 51l-6 133q-3 49 -51 49h-68q-49 0 -49 -49z" />
<glyph unicode="k" d="M260 51q0 -51 51 -51h144q47 0 47 45v6l-21 373q-3 35 17.5 42.5t42.5 -20.5l340 -417q23 -29 59 -29h254q36 0 44 19q2 5 2 10q0 15 -19 32l-521 502q-18 18 -18 38q0 16 12 32l344 426q22 25 13 43t-41 18h-119q-37 0 -62 -28l-292 -342q-22 -27 -42 -20t-20 42l8 733 v5q0 46 -49 46h-86q-49 0 -49 -49z" />
<glyph unicode="l" d="M377 1462q31 -202 39 -400q3 -90 4 -168q0 -94 -5 -170q-9 -140 -11 -320v-46q0 -158 12 -307q3 -51 49 -51h473q51 0 51 49v127q0 51 -51 51h-213q-23 0 -33.5 12.5t-15.5 39.5q-20 100 -31 200.5t-15 225.5t-4 214t1.5 264t1.5 277q0 51 -47 51h-154q-26 -1 -40 -13 q-12 -10 -12 -28q0 -4 1 -8z" />
<glyph unicode="m" d="M125 51q-1 -5 -1 -10q0 -41 48 -41h168q47 0 47 45v6l-16 582v26q1 145 61 245q66 110 166 110q70 0 112 -78q26 -47 26 -121q0 -47 -11 -104l-82 -658q-1 -6 -1 -11q0 -42 46 -42h150q51 0 51 49l2 584q0 77 22.5 165.5t64.5 154t89 65.5q86 0 124 -77t38 -241l-66 -649 q-1 -17 -1 -28t6.5 -17t23.5 -6h133q49 0 49 51l2 625q0 229 -71.5 350t-214.5 121q-84 0 -146.5 -54.5t-91.5 -134.5q-9 -25 -27 -23t-30 28q-32 57 -47.5 81.5t-40.5 53.5t-50.5 39t-60.5 10q-42 0 -73.5 -8t-54 -27.5t-30 -28.5t-23.5 -36q-3 -5 -5 -7q-23 -38 -40 -31 q-12 4 -10 33l5 25q1 5 1 10q0 43 -49 43h-59q-46 0 -49 -49z" />
<glyph unicode="n" d="M248 51v-5q0 -46 49 -46h154q49 0 49 51l-29 592q0 168 83.5 261t248.5 93q121 0 174 -77t53 -240l-37 -629v-5q0 -46 49 -46h160q49 0 49 46v5l-26 625q-21 471 -402 471q-147 0 -303 -107q-25 -19 -42 -10t-17 41v8q0 51 -49 51h-86q-49 0 -52 -49z" />
<glyph unicode="o" d="M236 559q0 -275 136.5 -431.5t377.5 -156.5q240 0 377 156.5t137 431.5q0 276 -137 432t-377 156q-242 0 -378 -155.5t-136 -432.5zM430 592q0 195 86 307.5t234 112.5q147 0 233 -113.5t86 -306.5q0 -95 -21 -156.5t-66 -93t-98 -42.5t-134 -11q-65 0 -110.5 6.5 t-87.5 25t-67 51.5t-40 88t-15 132z" />
<glyph unicode="p" d="M223 -373q-1 -5 -1 -10q0 -43 48 -43h131q52 0 52 49l6 455q0 34 15 38t38 -22q111 -123 305 -123q205 0 333 162.5t128 425.5t-128 425.5t-333 162.5q-192 0 -301 -121q-25 -26 -34.5 -22t-2.5 38v7q6 26 -6 40.5t-39 14.5h-78q-51 0 -51 -51v-793zM532 592 q0 202 84 317t230 115t229.5 -115t83.5 -317q0 -81 -13.5 -137.5t-36.5 -92t-62.5 -55t-83.5 -26.5t-107 -7t-109 7t-89 27t-69 54.5t-41.5 92t-15.5 137.5z" />
<glyph unicode="q" d="M184 559q0 -263 127 -425.5t330 -162.5q193 0 305 121q23 27 36 22t9 -40l-76 -652q-1 -5 -1 -10q0 -43 49 -43l172 2q36 0 61 25l100 84q20 15 21 34q0 18 -19 35l-159 154q-27 25 -27 57v7l94 1302v5q0 46 -49 46h-80q-47 0 -53 -45l-8 -45q-4 -21 -13 -30t-22 -4 t-27 22q-114 129 -313 129q-203 0 -330 -162.5t-127 -425.5zM305 586q0 203 83.5 318.5t229.5 115.5q147 0 231.5 -116t84.5 -318q0 -80 -15.5 -136.5t-40.5 -89.5t-68 -51.5t-87 -24t-109 -5.5q-53 0 -91 4t-75.5 15t-61.5 32.5t-43.5 55t-28.5 83.5t-9 117z" />
<glyph unicode="r" d="M416 55q-1 -8 -1 -15q0 -40 46 -40h180q49 0 49 46v5l-37 508q0 393 293 393q59 0 84 -4q29 -5 42 3.5t13 35.5l-2 84q0 47 -41 53q-16 2 -41 2q-146 0 -288 -88q-25 -17 -42.5 -8.5t-17.5 39.5q0 41 -49 41h-69q-50 0 -50 -51q4 -135 4 -247q1 -156 -7 -267 q-12 -191 -66 -490z" />
<glyph unicode="s" d="M322 84q0 -43 43 -55q189 -58 350 -58q216 0 339.5 90.5t123.5 247.5q0 136 -82.5 208t-278.5 114l-63 14q-146 32 -201 73.5t-55 117.5q0 84 73.5 131t210.5 47q146 0 279 -53q26 -12 41.5 -2.5t15.5 38.5v47q0 44 -41 58q-134 45 -317 45q-206 0 -318 -86t-112 -244 q0 -128 74.5 -193.5t248.5 -101.5l64 -14q175 -41 194 -66q26 -31 41 -57q16 -31 16 -54q0 -5 -1 -9q-28 -117 -248 -117q-162 0 -338 78q-26 12 -42.5 2t-16.5 -39v-162z" />
<glyph unicode="t" d="M401 1026q0 -49 43 -49h41q25 0 38 -13t12 -36l-27 -559q-1 -19 -1 -38q0 -175 87 -249q96 -82 317 -82h140q49 0 49 49v174q0 51 -49 51h-140q-61 0 -95 7.5t-57 31.5t-30.5 64.5t-7.5 111.5l8 439q3 49 51 49h160q49 0 49 49v43q0 51 -49 51h-158q-49 0 -49 46v5l6 177 q0 51 -49 51h-94q-51 0 -51 -49l-6 -181q-3 -49 -52 -49h-36q-50 0 -50 -51v-43z" />
<glyph unicode="u" d="M276 442q0 -232 100 -351.5t294 -119.5q182 0 301 125q25 26 40 21t13 -39v-27v-6q0 -45 47 -45l76 2q48 3 51 51l19 1020q1 25 -13 38q-12 11 -31 11h-6l-98 -2q-48 -3 -51 -49l-19 -426q-9 -167 -91.5 -260.5t-229.5 -93.5q-122 0 -180.5 77.5t-67.5 239.5v461 q0 51 -49 51h-55q-50 0 -50 -51v-627z" />
<glyph unicode="v" d="M225 1063l375 -1022q14 -41 57 -41h185q46 0 57 41l375 1022q4 12 4 22q0 11 -5 19q-10 16 -38 16h-92q-43 0 -60 -39l-301 -702q-12 -31 -32.5 -31t-32.5 31l-301 702q-14 39 -58 39h-92q-28 0 -39 -16q-6 -9 -6 -20q0 -9 4 -21z" />
<glyph unicode="w" d="M121 1065l180 -1022q6 -43 55 -43h162q42 0 57 37l142 319q9 21 21 28.5t24 0t20 -28.5l133 -317q14 -39 58 -39h172q46 0 55 43l178 1022q1 8 1 15q0 40 -44 40h-82q-49 0 -55 -43l-104 -655q-3 -21 -14.5 -29.5t-26 -2t-25.5 25.5l-149 260q-21 35 -60 35h-147 q-43 0 -60 -35l-139 -260q-15 -31 -37 -28.5t-28 34.5l-107 655q-6 43 -55 43h-82q-44 0 -44 -40q0 -7 1 -15z" />
<glyph unicode="x" d="M206 18q10 -18 42 -18h198q40 0 62 31l217 288q17 22 34 22l36 -24l198 -284q21 -33 62 -33h198q33 0 41 18q2 5 3 11q0 14 -15 32l-377 431q-16 16 -15 34q0 16 11 35l332 498q15 26 5.5 43.5t-40.5 17.5h-76q-38 0 -59 -30l-279 -379q-17 -23 -35.5 -22t-33.5 24 l-252 374q-23 33 -62 33h-84q-31 0 -40 -17.5t8 -43.5l323 -488q12 -17 12 -33q0 -19 -16 -36l-387 -441q-14 -17 -14 -31q0 -6 3 -12z" />
<glyph unicode="y" d="M209 -352v-146q0 -49 49 -49h117q248 0 446 443l451 1167q4 12 4 21q0 12 -6 20q-11 16 -39 16h-92q-40 0 -58 -37l-256 -548q-14 -28 -33 -29.5t-36 24.5l-338 555q-20 35 -60 35h-90q-29 0 -40 -16.5t1 -42.5l437 -934q8 -17 8 -34t-8 -34l-50 -98q-14 -28 -32 -51 q-3 -4 -23 -29.5t-28 -35t-28.5 -34t-32.5 -36t-32.5 -29.5t-35.5 -26.5t-33.5 -15.5t-34.5 -7h-78q-49 0 -49 -49z" />
<glyph unicode="z" d="M276 49q0 -49 50 -49h850q49 0 49 49v148q0 51 -49 51h-539q-34 0 -42.5 18t13.5 41l574 619q22 25 22 61v82q0 51 -49 51h-764q-49 0 -49 -51v-37q0 -49 49 -49h531q34 0 41.5 -19t-17.5 -42l-645 -629q-25 -28 -25 -62v-182z" />
<glyph unicode="{" d="M342 594q0 -53 29 -53h28q72 -2 114 -15.5t64 -48t27 -81.5t0 -128l-4 -237q3 -115 20.5 -183t65.5 -113t124 -62t204 -19h10q51 -3 51 47v135q3 48 -49 51h-16q-70 1 -112.5 11.5t-66 36.5t-32.5 57.5t-13 87.5l5 219q1 15 3.5 45.5t3.5 42.5t2 36.5t0 35t-3 29.5t-6 28 t-10.5 22.5t-16 21.5t-22.5 16.5t-29 15.5q-22 9 -26 14.5t5 14.5q11 11 39.5 38t39.5 38.5t30.5 38t27 50t15 60.5t8.5 82l4 248q1 50 4 81.5t13 58t24 40t42 24t61 14.5t87 7h19q25 -1 37 11t12 38l2 43q0 49 -31 49h-30q-131 -2 -207 -16.5t-127 -55.5t-69.5 -107.5 t-20.5 -180.5l-4 -240q-2 -76 -14.5 -123.5t-44 -77.5t-77.5 -42.5t-120 -16.5h-13q-47 3 -53 -45z" />
<glyph unicode="|" d="M623 -602q-3 -51 49 -51h90q49 0 49 49l29 1130l39 1407q1 25 -12 38.5t-38 13.5h-69q-51 0 -51 -50z" />
<glyph unicode="}" d="M354 1462q0 -49 35 -49h37q139 0 181 -43.5t42 -185.5v-248q0 -138 35.5 -209t120.5 -102q22 -7 22 -13t-22 -14q-83 -31 -112 -99.5t-23 -201.5l10 -227q6 -143 -38.5 -186.5t-186.5 -43.5h-21q-49 0 -49 -51v-102q0 -52 33 -52h31q102 0 172.5 12.5t121 41t77.5 78.5 t37.5 119t6.5 169l-10 219q-6 152 42 209.5t187 57.5h13q51 0 51 51v43q0 49 -33 49h-31q-141 0 -195 57.5t-54 206.5v240q0 114 -17.5 182.5t-66.5 111.5t-126 58.5t-206 15.5h-12q-52 0 -52 -51v-43z" />
<glyph unicode="~" d="M109 516q0 -32 18 -40.5t43 13.5q95 79 162.5 118.5t134.5 39.5q87 0 221 -67q37 -18 39 -19q8 -4 10 -4q25 -10 43 -20q130 -74 230 -74q80 0 157 42.5t193 131.5q31 19 31 59v45q0 31 -18 39.5t-44 -10.5q-154 -113 -297 -113q-94 0 -248 62l-36 14q-151 60 -259 60 q-89 0 -172 -29.5t-178 -95.5q-30 -24 -30 -62v-90z" />
<glyph unicode="&#xa0;" />
<glyph unicode="&#xa1;" d="M604 1313q-6 -53 47 -53h137q54 0 48 53l-21 174q-3 47 -51 47h-88q-47 0 -53 -47zM623 651l12 -606q3 -47 51 -47l162 4q49 0 49 53l-33 604l-26 308q-6 47 -54 47l-104 -4q-49 0 -49 -52z" />
<glyph unicode="&#xa2;" d="M303 559q-3 -245 114 -398t335 -190q47 -6 47 -53l-4 -190q0 -49 49 -52h2q51 0 51 50l2 188q3 45 49 51q101 12 195 47q39 14 39 58l4 143q0 27 -17 37.5t-43 -0.5q-84 -37 -168 -49q-53 -6 -53 49l15 708q0 54 53 48q89 -17 166 -56q26 -12 42 -3t17 38v35q0 43 -37 57 q-87 39 -190 51q-47 6 -47 54l2 188q3 51 -49 51h-3q-48 3 -51 -49l-2 -188q-3 -48 -49 -54q-220 -29 -342.5 -177.5t-126.5 -393.5zM498 555q4 184 72.5 297.5t193.5 144.5q24 7 38.5 -5.5t12.5 -39.5l-10 -696q-2 -26 -16 -37.5t-39 -5.5q-121 32 -187.5 121.5 t-64.5 220.5z" />
<glyph unicode="&#xa3;" d="M244 49q0 -49 49 -49l893 -16q51 0 51 49l4 121q0 48 -49 51l-457 6q-52 3 -49 51l10 336q0 50 52 47l290 -4q49 0 52 49v23q3 51 -50 51l-290 4q-50 3 -50 51l7 166q4 143 31.5 219t83 107.5t159.5 36.5q91 0 213 -58q26 -12 41.5 -2.5t17.5 37.5l2 76q0 43 -41 57 q-142 49 -247 49q-235 -6 -344 -121t-115 -374l-6 -189q0 -49 -51 -49l-101 2q-48 0 -51 -49v-22q0 -52 49 -52l98 -2q53 0 50 -51l-11 -334q0 -52 -51 -49l-135 2q-48 0 -51 -49z" />
<glyph unicode="&#xa4;" d="M225 162l43 -43q36 -36 72 -2l139 141q32 27 72 8q105 -51 199 -51q98 0 198 53q39 23 70 -8l139 -139q36 -33 72 0l43 43q34 34 0 69l-142 142q-29 29 -8 69q54 92 54 197q0 103 -52 201q-21 41 11 69l139 142q34 35 0 69l-43 43q-36 36 -72 0l-139 -141q-32 -27 -72 -8 q-96 51 -198 51q-108 0 -197 -51q-42 -25 -70 8l-141 139q-34 34 -70 0l-45 -45q-35 -35 2 -69l140 -140q28 -33 8 -69q-53 -95 -53 -199q0 -96 53 -199q18 -41 -10 -69l-142 -142q-35 -35 0 -69zM479 643q0 112 79 189t192 77q114 0 192 -77t78 -189q0 -55 -20 -94 t-58.5 -60.5t-85 -30.5t-106.5 -9q-126 0 -198.5 44t-72.5 150z" />
<glyph unicode="&#xa5;" d="M200.5 1476.5q-10.5 -16.5 2.5 -42.5l246 -467q13 -26 2.5 -43t-39.5 -17h-148q-49 0 -49 -51v-22q0 -23 13 -36.5t36 -13.5h244q39 0 61 -32l64 -95q18 -30 18 -61q0 -18 -51 -18h-315q-49 0 -49 -50v-63q0 -49 49 -49h313q52 0 49 -54l-22 -311q-3 -51 49 -51h157 q51 0 48 51l-15 314q-3 51 49 51h312q51 0 51 49v63q0 50 -51 50h-316q-49 0 -49 51l17 30l49 91q18 34 57 34h242q51 0 51 50v22q0 51 -51 51h-146q-31 0 -41 17t4 43l254 467q14 26 4.5 42.5t-38.5 16.5h-105q-41 0 -57 -37l-316 -598q-14 -28 -33.5 -28t-33.5 28 l-316 598q-19 37 -59 37h-102q-29 0 -39.5 -16.5z" />
<glyph unicode="&#xa6;" d="M594 -768q-3 -51 47 -51h90q51 0 51 49l54 1245q0 51 -50 51h-69q-50 0 -53 -49zM680 881q0 -52 49 -52h70q51 0 51 50l57 1185q0 52 -49 52h-70q-51 0 -51 -50z" />
<glyph unicode="&#xa7;" d="M332 723q0 -103 63 -178q65 -77 279 -197l24 -14q18 -10 50 -26t50.5 -26.5t39 -24.5t30 -28t9.5 -30q0 -72 -53 -100.5t-162 -28.5q-105 0 -234 53q-29 9 -47 -1.5t-12 -37.5l43 -178q5 -25 13 -37.5t28 -18.5q145 -45 272 -45q173 0 276 84.5t103 225.5q0 106 -80 186 q-33 39 6 70q139 100 139 252q0 101 -65 178q-63 74 -277 196l-41 23q-204 116 -204 205q0 72 53.5 111.5t150.5 39.5q101 0 224 -53q26 -11 41.5 -0.5t15.5 39.5v57q0 44 -41 58q-130 43 -262 43q-166 0 -266.5 -79t-100.5 -210q0 -113 76 -189q37 -37 -4 -65 q-137 -96 -137 -254zM494 809q0 79 92 156q28 26 69 6q216 -121 281 -183q72 -69 72 -143q0 -78 -93 -156q-33 -26 -69 -6q-219 119 -283 183q-69 66 -69 143z" />
<glyph unicode="&#xa8;" d="M432 1401q0 -51 49 -51h119q49 0 49 51v117q0 49 -49 49h-119q-49 0 -49 -49v-117zM852 1401q0 -51 49 -51h119q49 0 49 51v117q0 49 -49 49h-119q-49 0 -49 -49v-117z" />
<glyph unicode="&#xa9;" d="M8 741q0 -302 217 -522q219 -219 525 -219q305 0 524 219q217 217 217 522q0 308 -217 525q-219 219 -524 219q-306 0 -525 -219q-217 -220 -217 -525zM109 741q0 263 190 453q188 188 451 188q264 0 452 -188q187 -190 187 -453q0 -275 -187 -419q-203 -140 -452 -140 q-248 0 -451 140q-190 169 -190 419zM307 741q0 -207 126 -329.5t341 -122.5q129 0 236 41q39 14 39 57v82q0 29 -16 38.5t-42 -1.5q-90 -37 -194 -37q-147 0 -236.5 82.5t-89.5 189.5q0 160 84.5 261.5t230.5 101.5q99 0 205 -39q26 -11 42 -3t16 34q0 43 -39 57 q-115 39 -236 39q-216 0 -341.5 -121t-125.5 -330z" />
<glyph unicode="&#xaa;" d="M393 946q0 135 96 204t283 69h133q49 0 49 4q0 182 -233 182q-97 0 -209 -41q-26 -11 -41.5 -1t-15.5 38v20q0 43 41 58q128 41 245 41q183 0 273 -87.5t90 -267.5v-397q0 -51 -49 -51h-49q-52 0 -52 33q0 64 -53 20q-91 -72 -227 -72q-128 0 -204.5 67t-76.5 181z M418 518v25q0 49 51 49h588q49 0 49 -49v-25q0 -49 -49 -49h-588q-51 0 -51 49zM530 1024q0 -64 49.5 -102.5t131.5 -38.5q101 0 164.5 67t68.5 176q-3 43 -49 43h-78q-154 0 -223 -32q-64 -39 -64 -113z" />
<glyph unicode="&#xab;" d="M281 557q-15 -41 16 -68l373 -356q22 -20 39.5 -14t25.5 35l25 122q9 36 -21 66l-225 213q-35 38 4 72l242 198q25 25 28 62l3 71q2 32 -17 41.5t-45 -12.5l-393 -328q-26 -21 -37 -51zM715 543q-15 -39 14 -68l375 -356q22 -21 39.5 -15.5t25.5 35.5l25 121q9 40 -20 66 l-226 215q-39 36 2 69l244 201q26 23 29 61l2 72q2 32 -17.5 41.5t-44.5 -12.5l-393 -328q-24 -19 -37 -51z" />
<glyph unicode="&#xac;" d="M94 723q0 -52 51 -49l1010 16q26 1 38 -12.5t9 -38.5l-37 -299q-6 -53 47 -53h144q52 0 49 51l-25 475q-3 49 -53 49h-1182q-51 0 -51 -51v-88z" />
<glyph unicode="&#xad;" d="M475 532l12 76q6 45 54 45l438 9q26 1 38 -13t7 -41l-10 -73q-9 -48 -53 -48l-439 -8q-26 0 -38.5 14t-8.5 39z" />
<glyph unicode="&#xae;" d="M8 741q0 -302 217 -522q219 -219 525 -219q305 0 524 219q217 217 217 522q0 308 -217 525q-219 219 -524 219q-306 0 -525 -219q-217 -220 -217 -525zM109 791q0 239 190 417q189 174 451 174q263 0 452 -174q187 -175 187 -417q0 -244 -187 -416q-188 -176 -452 -176 q-263 0 -451 176q-190 175 -190 416zM444 387q0 -49 52 -49h104q49 0 49 49v256q0 51 51 51h7q11 0 51 -24q35 -27 94 -123l109 -176q20 -33 59 -33h61q31 0 40.5 17t-5.5 42l-100 164q-33 53 -78 113l-10 8q-14 14 -17.5 23.5t3 16.5t24.5 13q141 51 141 199 q0 121 -86.5 180.5t-263.5 59.5h-233q-52 0 -52 -50v-737zM649 895v176q0 49 51 49h72q109 0 154 -31.5t45 -107.5q0 -74 -44.5 -104.5t-154.5 -30.5h-72q-51 0 -51 49z" />
<glyph unicode="&#xaf;" d="M451 1427q0 -49 51 -49h497q50 0 50 49v50q0 49 -50 49h-497q-51 0 -51 -49v-50z" />
<glyph unicode="&#xb0;" d="M432 1200q0 -135 90.5 -225t225.5 -90t227 91.5t92 223.5q0 136 -92 225q-89 95 -225 95q-132 0 -225 -93.5t-93 -226.5zM559 1268q0 72 56 123t135 51q78 0 134 -51t56 -123t-55 -122t-135 -50t-135.5 50t-55.5 122z" />
<glyph unicode="&#xb1;" d="M160 49q0 -49 49 -49h1081q51 0 51 49v90q0 51 -51 51h-1081q-49 0 -49 -51v-90zM160 776q0 -49 49 -49h407q50 0 50 -49v-289q0 -49 51 -49h67q50 0 50 49v289q0 49 51 49h405q51 0 51 49v72q0 49 -51 49h-405q-51 0 -51 49v289q0 23 -13.5 36t-36.5 13h-67 q-51 0 -51 -49v-289q0 -49 -50 -49h-407q-49 0 -49 -49v-72z" />
<glyph unicode="&#xb2;" d="M451 719q0 -51 51 -51h497q50 0 50 51v63q0 52 -50 52h-280q-34 0 -41.5 19t18.5 42l17 12q195 168 248 224q81 86 81 149q0 108 -86.5 174t-230.5 66q-96 0 -227 -41q-41 -14 -41 -58v-16q0 -59 59 -37q107 43 186 43q85 0 138 -40.5t53 -106.5q0 -18 -12 -39t-46 -55 t-64.5 -61t-101 -88t-120.5 -106q-16 -13 -39.5 -33.5t-32.5 -27.5q-26 -26 -26 -61v-74z" />
<glyph unicode="&#xb3;" d="M442 739q-3 -46 41 -57q119 -29 207 -29q178 0 273.5 66.5t95.5 191.5q0 68 -38 119.5t-108 77.5q-16 5 -20.5 9t0 8t20.5 10q60 23 91.5 67t31.5 101q0 100 -84 158.5t-227 58.5q-88 0 -213 -25q-43 -8 -43 -55v-13q0 -26 14.5 -37t40.5 -4q106 25 166 25q95 0 146 -31 t51 -88q0 -60 -49.5 -91.5t-143.5 -31.5h-43q-51 0 -51 -51v-8q0 -49 43 -49h43q219 0 219 -150q0 -28 -9.5 -47t-25 -30t-45 -17t-60.5 -8t-79 -2q-102 0 -182 29q-27 9 -43 -0.5t-17 -36.5z" />
<glyph unicode="&#xb4;" d="M521 1338q9 -17 40 -17h57q40 0 62 27l287 329q21 23 12 42.5t-41 19.5h-102q-37 0 -62 -31l-242 -328q-20 -25 -11 -42z" />
<glyph unicode="&#xb5;" d="M184 1096l43 -1600q3 -51 52 -51h83q53 0 50 51l-27 547q-3 67 45 16q85 -88 240 -88q162 0 262 115q15 20 25.5 18.5t19.5 -26.5q39 -107 151 -107q34 0 93 35q36 25 61 39q35 20 35 61v46q0 28 -6.5 42.5t-16.5 10.5q-8 -4 -20 -8q-4 -1 -10 -1.5t-22 -1.5t-23 1 q-82 12 -82 63l8 811q3 51 -49 51h-84q-48 0 -51 -49l-9 -393q0 -336 -297 -336q-266 0 -272 293l-14 469q-3 49 -54 49l-84 -4q-50 -3 -47 -53z" />
<glyph unicode="&#xb6;" d="M186 1071q0 -79 27 -150t71 -122t95 -86.5t104 -53.5q44 -12 39 -57l-61 -747q-3 -52 49 -52h219q49 0 49 50v1468q0 49 51 49h91q49 0 49 -49l-11 -1468q0 -23 13.5 -36.5t38.5 -13.5h256q53 0 47 54l-207 1589q-6 47 -53 47h-391q-215 0 -345.5 -116.5t-130.5 -305.5z " />
<glyph unicode="&#xb7;" d="M645 635q0 -51 49 -51h113q49 0 49 51v153q0 50 -49 50h-113q-49 0 -49 -50v-153z" />
<glyph unicode="&#xb8;" d="M543 -299v-27q0 -45 43 -57q64 -12 133 -12q237 0 237 180q0 83 -84 186q-23 29 -61 29h-23q-24 0 -28.5 -17.5t10.5 -43.5q47 -70 47 -117q0 -94 -119 -94q-54 0 -100 12q-55 13 -55 -39z" />
<glyph unicode="&#xb9;" d="M465 1403q0 -54 53 -45l115 20q53 9 53 -45v-432q0 -49 -49 -49h-105q-49 0 -49 -49v-84q0 -51 49 -51h453q51 0 51 51v84q0 49 -51 49h-104q-23 0 -36.5 13t-13.5 36v551q0 51 -51 51h-55q-27 0 -61 -6l-154 -24q-45 -9 -45 -56v-14z" />
<glyph unicode="&#xba;" d="M365 1108q0 -191 103.5 -300.5t283.5 -109.5q179 0 282 110t103 300q0 192 -103 302t-282 110q-180 0 -283.5 -110t-103.5 -302zM408 469h688v123h-688v-123zM520 1192q0 114 63 182t169 68t167.5 -67.5t61.5 -182.5q0 -114 -62.5 -182t-166.5 -68q-105 0 -168.5 68 t-63.5 182z" />
<glyph unicode="&#xbb;" d="M281 317l16 -122q1 -31 19.5 -38.5t41.5 11.5l404 324q32 25 20 65l-14 51q-5 30 -31 56l-364 360q-23 24 -42.5 17t-21.5 -40l-4 -71q0 -39 25 -64l223 -221q38 -35 -4 -70l-242 -192q-32 -25 -26 -66zM715 295l14 -123q3 -31 22 -38.5t42 11.5l401 324q35 25 23 66 l-15 51q-9 33 -33 55l-364 360q-23 23 -42 16.5t-20 -38.5l-4 -74q-3 -36 25 -61l221 -221q19 -17 18 -36t-22 -34l-242 -195q-30 -24 -24 -63z" />
<glyph unicode="&#xbc;" d="M-86 1403q0 -26 14 -38t39 -7l117 20q25 5 39 -7t14 -38v-506q0 -49 -51 -49h-102q-52 0 -52 -51v-8q0 -51 52 -51h452q49 0 49 51v8q0 51 -49 51h-104q-51 0 -51 49v625q0 51 -50 51h-57q-29 0 -59 -6l-156 -24q-45 -9 -45 -56v-14zM294 -11.5q10 -17.5 40 -17.5h51 q37 0 57 33l877 1456q15 25 5 42.5t-40 17.5h-49q-39 0 -59 -33l-877 -1456q-15 -25 -5 -42.5zM893 238q0 -50 49 -50h315q50 0 50 -51v-86q0 -49 51 -49h43q49 0 49 49v86q0 51 51 51h35q49 0 49 50v10q0 49 -43 49h-41q-51 0 -51 49v440q0 52 -49 52h-78q-36 0 -61 -31 l-349 -469q-20 -29 -20 -64v-36zM1033 314.5q-9 17.5 9 43.5l203 275q22 29 42 22.5t20 -43.5v-266q0 -49 -50 -49h-184q-31 0 -40 17.5z" />
<glyph unicode="&#xbd;" d="M-90 1403q0 -54 53 -45l115 20q53 9 53 -45v-506q0 -49 -49 -49h-105q-49 0 -49 -51v-8q0 -51 49 -51h455q49 0 49 51v8q0 51 -49 51h-104q-52 0 -52 49v625q0 51 -51 51h-55q-26 0 -61 -6l-154 -24q-45 -9 -45 -56v-14zM239 -11.5q10 -17.5 40 -17.5h51q39 0 59 33 l877 1456q15 25 5 42.5t-40 17.5h-51q-40 0 -60 -33l-874 -1456q-17 -25 -7 -42.5zM993 51q0 -49 49 -49h498q51 0 51 49v15q0 51 -51 51h-278q-35 0 -43 19t18 42l16 12q332 285 332 424q0 108 -87.5 174t-231.5 66q-98 0 -226 -43q-41 -11 -41 -55v-17q0 -29 16 -39t44 2 q104 43 186 43q85 0 137 -40.5t52 -106.5q0 -94 -344 -399q-12 -11 -25 -22.5l-26 -23t-19 -16.5q-27 -27 -27 -61v-25z" />
<glyph unicode="&#xbe;" d="M-80 737q0 -43 43 -55q122 -29 209 -29q177 0 272 67t95 191q0 69 -37.5 120t-106.5 77q-16 5 -20.5 9t0 8t20.5 10q59 23 91 67t32 101q0 100 -84 158.5t-229 58.5q-89 0 -211 -25q-45 -9 -45 -55v-13q0 -26 15.5 -37t41.5 -4q106 25 166 25q95 0 145 -31t50 -88 q0 -60 -48.5 -91.5t-142.5 -31.5h-45q-49 0 -49 -51v-8q0 -49 43 -49h43q107 0 163 -38.5t56 -111.5q0 -71 -60 -110t-169 -39q-101 0 -181 29q-26 9 -41.5 0t-15.5 -35v-19zM327 -11.5q10 -17.5 40 -17.5h51q39 0 59 33l877 1456q15 25 5 42.5t-40 17.5h-51q-40 0 -60 -33 l-874 -1456q-17 -25 -7 -42.5zM887 238q0 -50 51 -50h313q49 0 49 -51v-86q0 -49 52 -49h43q51 0 51 49v86q0 51 49 51h35q49 0 49 50v10q0 49 -43 49h-41q-49 0 -49 49v440q0 52 -51 52h-78q-37 0 -62 -31l-348 -469q-20 -29 -20 -64v-36zM1027 314.5q-9 17.5 9 43.5 l203 275q22 29 41.5 22.5t19.5 -43.5v-266q0 -49 -49 -49h-184q-31 0 -40 17.5z" />
<glyph unicode="&#xbf;" d="M352 324q0 -159 112 -256t296 -97t354 92q35 20 35 62v135q0 31 -17 39.5t-45 -6.5q-162 -98 -292 -98q-109 0 -174.5 54.5t-65.5 143.5q0 94 109 197l90 88q76 82 95 122t19 136v106q0 50 -49 50h-59q-51 0 -51 -50v-73q0 -88 -13 -135q-18 -49 -94 -125l-88 -86 q-89 -86 -125.5 -154t-36.5 -145zM702 1288q0 -49 52 -49h100q51 0 51 49v156q0 49 -51 49h-100q-52 0 -52 -49v-156z" />
<glyph unicode="&#xc0;" d="M88 57q-9 -27 1.5 -42t39.5 -15h168q41 0 55 41l49 162q15 41 58 41h583q47 0 56 -45l37 -156q9 -43 55 -43h182q28 0 38.5 15.5t0.5 41.5l-551 1397q-14 39 -57 39h-105q-43 0 -57 -39zM460 2281q-10 -17 5 -43l153 -280q18 -35 60 -35h156q32 0 40.5 18t-10.5 44 l-213 282q-25 31 -61 31h-90q-30 0 -40 -17zM496 539l223 673q7 22 19.5 30t24.5 0t19 -30l224 -673q9 -26 -2 -42t-39 -16h-428q-28 0 -39 16t-2 42z" />
<glyph unicode="&#xc1;" d="M88 57q-9 -27 1.5 -42t39.5 -15h168q41 0 55 41l49 162q15 41 58 41h583q47 0 56 -45l37 -156q9 -43 55 -43h182q28 0 38.5 15.5t0.5 41.5l-551 1397q-14 39 -57 39h-105q-43 0 -57 -39zM496 539l223 673q7 22 19.5 30t24.5 0t19 -30l224 -673q9 -26 -2 -42t-39 -16h-428 q-28 0 -39 16t-2 42zM716 1922q9 -17 40 -17h57q40 0 61 26l287 330q21 23 12.5 42t-40.5 19h-103q-37 0 -61 -30l-242 -328q-20 -25 -11 -42z" />
<glyph unicode="&#xc2;" d="M88 57q-9 -27 1.5 -42t39.5 -15h168q41 0 55 41l49 162q15 41 58 41h583q47 0 56 -45l37 -156q9 -43 55 -43h182q28 0 38.5 15.5t0.5 41.5l-551 1397q-14 39 -57 39h-105q-43 0 -57 -39zM442 1501h140l145 197q15 23 35 23t35 -23l145 -197h139l-245 377h-148zM496 539 l223 673q7 22 19.5 30t24.5 0t19 -30l224 -673q9 -26 -2 -42t-39 -16h-428q-28 0 -39 16t-2 42z" />
<glyph unicode="&#xc3;" d="M88 57q-9 -27 1.5 -42t39.5 -15h168q41 0 55 41l49 162q15 41 58 41h583q47 0 56 -45l37 -156q9 -43 55 -43h182q28 0 38.5 15.5t0.5 41.5l-551 1397q-14 39 -57 39h-105q-43 0 -57 -39zM436 1937q-6 -53 47 -53h25q47 0 53 49q3 41 17 70q18 37 55 37q25 0 67 -39 l58 -55q68 -62 139 -62q82 0 132.5 60t60.5 170q3 53 -50 53h-24q-45 0 -51 -49q-5 -38 -17 -70q-18 -37 -57 -37q-26 0 -68 39l-57 55q-68 62 -139 62q-82 0 -131 -60t-60 -170zM496 539l223 673q7 22 19.5 30t24.5 0t19 -30l224 -673q9 -26 -2 -42t-39 -16h-428 q-28 0 -39 16t-2 42z" />
<glyph unicode="&#xc4;" d="M88 57q-9 -27 1.5 -42t39.5 -15h168q41 0 55 41l49 162q15 41 58 41h583q47 0 56 -45l37 -156q9 -43 55 -43h182q28 0 38.5 15.5t0.5 41.5l-551 1397q-14 39 -57 39h-105q-43 0 -57 -39zM442 1675q0 -51 50 -51h118q49 0 49 51v117q0 49 -49 49h-118q-50 0 -50 -49v-117z M496 539l223 673q7 22 19.5 30t24.5 0t19 -30l224 -673q9 -26 -2 -42t-39 -16h-428q-28 0 -39 16t-2 42zM862 1675q0 -51 49 -51h119q49 0 49 51v117q0 49 -49 49h-119q-49 0 -49 -49v-117z" />
<glyph unicode="&#xc5;" d="M88 57q-9 -27 1.5 -42t39.5 -15h168q41 0 55 41l49 162q15 41 58 41h583q47 0 56 -45l37 -156q9 -43 55 -43h182q28 0 38.5 15.5t0.5 41.5l-551 1397q-14 39 -57 39h-105q-43 0 -57 -39zM487 1798q0 -115 80.5 -194.5t194.5 -79.5q116 0 195 79t79 195t-79.5 195.5 t-194.5 79.5q-114 0 -194.5 -80t-80.5 -195zM496 539l223 673q7 22 19.5 30t24.5 0t19 -30l224 -673q9 -26 -2 -42t-39 -16h-428q-28 0 -39 16t-2 42zM610 1798q0 64 44 108t108 44t107.5 -44.5t43.5 -107.5t-43.5 -107t-107.5 -44q-65 0 -108.5 43.5t-43.5 107.5z" />
<glyph unicode="&#xc6;" d="M86 57q-13 -57 39 -57h231q50 0 50 51l-7 162q-3 49 50 49h217q49 0 49 -49v-164q0 -49 51 -49h602q49 0 49 49v162q0 49 -49 49h-410q-51 0 -51 49v183q0 49 51 49h361q49 0 49 51v70q0 49 -49 49h-361q-51 0 -51 51v512q0 49 51 49h392q49 0 49 49v72q0 49 -49 49h-861 q-47 0 -59 -39zM426 487l145 807q6 41 58 41h37q49 0 49 -51v-803q0 -51 -49 -51h-199q-48 0 -41 57z" />
<glyph unicode="&#xc7;" d="M147 745q0 359 196 567t534 208q252 0 442 -121q33 -18 33 -60v-96q0 -32 -17.5 -39.5t-42.5 13.5q-180 137 -403 137q-256 0 -392.5 -156.5t-136.5 -452.5q4 -254 134 -361.5t395 -107.5q223 0 403 140q25 19 42.5 11t17.5 -40v-233q0 -40 -33 -60q-188 -117 -416 -123 q84 -103 84 -186q0 -180 -237 -180q-70 0 -134 12q-43 12 -43 57v27q0 52 56 39q47 -12 100 -12q119 0 119 94q0 47 -47 117q-13 23 -13 36q-299 28 -470 232.5t-171 537.5z" />
<glyph unicode="&#xc8;" d="M268 49q0 -49 51 -49h863q49 0 49 49v211q0 49 -49 49h-662q-49 0 -49 51v302q0 49 49 49h613q49 0 49 51v69q0 50 -49 50h-613q-49 0 -49 51v342q0 49 49 49h643q49 0 49 49v72q0 49 -49 49h-844q-51 0 -51 -49v-1395zM417 2330.5q-10 -16.5 5 -42.5l153 -281 q18 -35 60 -35h156q32 0 40.5 18t-10.5 44l-213 282q-25 31 -61 31h-90q-30 0 -40 -16.5z" />
<glyph unicode="&#xc9;" d="M268 49q0 -49 51 -49h863q49 0 49 49v211q0 49 -49 49h-662q-49 0 -49 51v302q0 49 49 49h613q49 0 49 51v69q0 50 -49 50h-613q-49 0 -49 51v342q0 49 49 49h643q49 0 49 49v72q0 49 -49 49h-844q-51 0 -51 -49v-1395zM673 1971q9 -17 40 -17h57q40 0 61 26l287 330 q21 23 12.5 42.5t-40.5 19.5h-103q-36 0 -61 -31l-242 -328q-20 -25 -11 -42z" />
<glyph unicode="&#xca;" d="M268 49q0 -49 51 -49h863q49 0 49 49v211q0 49 -49 49h-662q-49 0 -49 51v302q0 49 49 49h613q49 0 49 51v69q0 50 -49 50h-613q-49 0 -49 51v342q0 49 49 49h643q49 0 49 49v72q0 49 -49 49h-844q-51 0 -51 -49v-1395zM399 1550h140l145 197q15 23 35 23t35 -23 l145 -197h139l-245 377h-148z" />
<glyph unicode="&#xcb;" d="M268 49q0 -49 51 -49h863q49 0 49 49v211q0 49 -49 49h-662q-49 0 -49 51v302q0 49 49 49h613q49 0 49 51v69q0 50 -49 50h-613q-49 0 -49 51v342q0 49 49 49h643q49 0 49 49v72q0 49 -49 49h-844q-51 0 -51 -49v-1395zM399 1724q0 -51 50 -51h118q49 0 49 51v117 q0 49 -49 49h-118q-50 0 -50 -49v-117zM819 1724q0 -51 49 -51h119q49 0 49 51v117q0 49 -49 49h-119q-49 0 -49 -49v-117z" />
<glyph unicode="&#xcc;" d="M458 2379.5q-10 -16.5 5 -42.5l153 -281q18 -35 60 -35h155q32 0 41 18t-10 44l-213 282q-25 31 -61 31h-90q-30 0 -40 -16.5zM633 51q-3 -51 49 -51h137q52 0 49 51q-10 209 -15 422t-7.5 547t-3.5 424q0 49 -51 49h-72q-48 0 -51 -49q-1 -85 -5 -335.5t-6.5 -374 t-8.5 -321.5t-15 -362z" />
<glyph unicode="&#xcd;" d="M633 51q-3 -51 49 -51h137q52 0 49 51q-10 209 -15 422t-7.5 547t-3.5 424q0 49 -51 49h-72q-48 0 -51 -49q-1 -85 -5 -335.5t-6.5 -374t-8.5 -321.5t-15 -362zM714 2020q9 -17 40 -17h57q39 0 61 27l287 329q21 23 12 42.5t-41 19.5h-102q-36 0 -61 -31l-242 -328 q-20 -25 -11 -42z" />
<glyph unicode="&#xce;" d="M440 1599h140l145 197q15 23 35 23t35 -23l145 -197h139l-245 377h-148zM633 51q-3 -51 49 -51h137q52 0 49 51q-10 209 -15 422t-7.5 547t-3.5 424q0 49 -51 49h-72q-48 0 -51 -49q-1 -85 -5 -335.5t-6.5 -374t-8.5 -321.5t-15 -362z" />
<glyph unicode="&#xcf;" d="M440 1774q0 -52 49 -52h119q49 0 49 52v116q0 49 -49 49h-119q-49 0 -49 -49v-116zM633 51q-3 -51 49 -51h137q52 0 49 51q-10 209 -15 422t-7.5 547t-3.5 424q0 49 -51 49h-72q-48 0 -51 -49q-1 -85 -5 -335.5t-6.5 -374t-8.5 -321.5t-15 -362zM860 1774q0 -52 49 -52 h119q49 0 49 52v116q0 49 -49 49h-119q-49 0 -49 -49v-116z" />
<glyph unicode="&#xd0;" d="M100 750q0 -50 52 -50h100q49 0 49 -51v-600q0 -49 51 -49h336q344 0 527.5 185t183.5 563q0 376 -183.5 560.5t-527.5 184.5h-336q-51 0 -51 -49v-549q0 -51 -49 -51h-100q-52 0 -52 -49v-45zM506 356v293q0 51 49 51h207q23 0 36 13.5t13 36.5v45q0 49 -49 49h-207 q-49 0 -49 51v383q0 49 49 49h164q220 0 343.5 -143.5t123.5 -435.5q0 -75 -8 -135t-25.5 -104.5t-39.5 -78t-55 -55.5t-66.5 -36t-80.5 -21.5t-90 -10t-102 -2.5h-164q-49 0 -49 51z" />
<glyph unicode="&#xd1;" d="M176 51q-3 -51 49 -51h156q50 0 47 51l-49 1059q-3 38 17.5 44t39.5 -28l578 -1089q16 -37 59 -37h203q49 0 49 49v1395q0 49 -49 49h-88q-49 0 -49 -49l-27 -1041q-2 -37 -22 -41.5t-39 27.5l-566 1038q-17 35 -59 35h-162q-48 0 -51 -49zM436 2036q-6 -54 47 -54h25 q47 0 53 50q3 40 17 69q18 37 55 37q25 0 67 -39l58 -55q68 -62 139 -62q82 0 132.5 60t60.5 170q3 53 -50 53h-24q-45 0 -51 -49q-5 -38 -17 -70q-18 -37 -57 -37q-26 0 -68 39l-57 56q-66 61 -139 61q-82 0 -131 -59.5t-60 -169.5z" />
<glyph unicode="&#xd2;" d="M109 745q0 -352 177.5 -563t465.5 -211q286 0 462.5 211.5t176.5 562.5t-176.5 563t-462.5 212q-288 0 -465.5 -212t-177.5 -563zM322 745q0 280 118.5 445.5t311.5 165.5q191 0 308.5 -165.5t117.5 -445.5q0 -91 -20.5 -159.5t-56.5 -112t-90.5 -70.5t-117 -38 t-141.5 -11q-101 0 -175.5 18t-134 61t-90 121t-30.5 191zM448 2379.5q-10 -16.5 5 -42.5l153 -281q18 -35 60 -35h155q32 0 41 18t-10 44l-213 282q-25 31 -61 31h-91q-29 0 -39 -16.5z" />
<glyph unicode="&#xd3;" d="M109 745q0 -352 177.5 -563t465.5 -211q286 0 462.5 211.5t176.5 562.5t-176.5 563t-462.5 212q-288 0 -465.5 -212t-177.5 -563zM322 745q0 280 118.5 445.5t311.5 165.5q191 0 308.5 -165.5t117.5 -445.5q0 -91 -20.5 -159.5t-56.5 -112t-90.5 -70.5t-117 -38 t-141.5 -11q-101 0 -175.5 18t-134 61t-90 121t-30.5 191zM703.5 2020q8.5 -17 39.5 -17h58q39 0 61 27l287 329q21 23 12 42.5t-41 19.5h-102q-37 0 -62 -31l-241 -328q-20 -25 -11.5 -42z" />
<glyph unicode="&#xd4;" d="M109 745q0 -352 177.5 -563t465.5 -211q286 0 462.5 211.5t176.5 562.5t-176.5 563t-462.5 212q-288 0 -465.5 -212t-177.5 -563zM322 745q0 280 118.5 445.5t311.5 165.5q191 0 308.5 -165.5t117.5 -445.5q0 -91 -20.5 -159.5t-56.5 -112t-90.5 -70.5t-117 -38 t-141.5 -11q-101 0 -175.5 18t-134 61t-90 121t-30.5 191zM430 1599h139l146 197q15 23 34.5 23t34.5 -23l146 -197h139l-246 377h-147z" />
<glyph unicode="&#xd5;" d="M109 745q0 -352 177.5 -563t465.5 -211q286 0 462.5 211.5t176.5 562.5t-176.5 563t-462.5 212q-288 0 -465.5 -212t-177.5 -563zM322 745q0 280 118.5 445.5t311.5 165.5q191 0 308.5 -165.5t117.5 -445.5q0 -91 -20.5 -159.5t-56.5 -112t-90.5 -70.5t-117 -38 t-141.5 -11q-101 0 -175.5 18t-134 61t-90 121t-30.5 191zM424 2036q-6 -54 47 -54h25q47 0 53 50q3 42 16 69q18 37 56 37q25 0 67 -39l57 -55q68 -62 140 -62q82 0 131.5 60t60.5 170q3 53 -49 53h-24q-46 0 -52 -49q-5 -42 -16 -70q-18 -37 -57 -37q-26 0 -68 39l-57 56 q-66 61 -140 61q-82 0 -130.5 -59t-59.5 -170z" />
<glyph unicode="&#xd6;" d="M109 745q0 -352 177.5 -563t465.5 -211q286 0 462.5 211.5t176.5 562.5t-176.5 563t-462.5 212q-288 0 -465.5 -212t-177.5 -563zM322 745q0 280 118.5 445.5t311.5 165.5q191 0 308.5 -165.5t117.5 -445.5q0 -91 -20.5 -159.5t-56.5 -112t-90.5 -70.5t-117 -38 t-141.5 -11q-101 0 -175.5 18t-134 61t-90 121t-30.5 191zM430 1774q0 -52 49 -52h119q49 0 49 52v116q0 49 -49 49h-119q-49 0 -49 -49v-116zM850 1774q0 -52 49 -52h119q49 0 49 52v116q0 49 -49 49h-119q-49 0 -49 -49v-116z" />
<glyph unicode="&#xd7;" d="M221 289q-32 -36 2 -70l99 -100q36 -36 69 0l309 307q35 38 70 0l309 -307q34 -36 70 0l100 100q33 33 2 72l-290 336q-31 38 0 69l317 320q34 34 0 69l-98 101q-36 34 -70 0l-319 -320q-35 -35 -70 0l-289 289q-34 35 -72 0l-98 -100q-35 -35 0 -70l287 -289 q35 -34 0 -69z" />
<glyph unicode="&#xd8;" d="M109 745q0 351 177.5 563t465.5 212q46 0 118 -11l29 84q16 42 57 39l50 -2q28 0 39.5 -15.5t3.5 -41.5l-33 -111q174 -83 274.5 -270.5t100.5 -446.5q0 -351 -176.5 -562.5t-462.5 -211.5q-87 0 -177 23q-15 -31 -53 -31l-127 4q-27 1 -38 17t-3 43l23 67 q-128 98 -198 265.5t-70 385.5zM322 745q0 -254 163 -339l330 946q-40 4 -63 4q-193 0 -311.5 -165.5t-118.5 -445.5zM684 356q23 -2 68 -2q79 0 141.5 11t117 38t90.5 70.5t56.5 112t20.5 159.5q0 191 -57 331t-158 212z" />
<glyph unicode="&#xd9;" d="M168 1444l10 -883q3 -292 147.5 -441t426.5 -149q281 0 424.5 149t146.5 441l8 883q0 49 -49 49h-113q-49 0 -49 -51l8 -717q3 -237 -88.5 -344t-287.5 -107q-197 0 -289.5 107t-89.5 344l8 717q0 51 -49 51h-115q-49 0 -49 -49zM448 2379.5q-10 -16.5 5 -42.5l153 -281 q18 -35 60 -35h155q32 0 41 18t-10 44l-213 282q-25 31 -61 31h-91q-29 0 -39 -16.5z" />
<glyph unicode="&#xda;" d="M168 1444l10 -883q3 -292 147.5 -441t426.5 -149q281 0 424.5 149t146.5 441l8 883q0 49 -49 49h-113q-49 0 -49 -51l8 -717q3 -237 -88.5 -344t-287.5 -107q-197 0 -289.5 107t-89.5 344l8 717q0 51 -49 51h-115q-49 0 -49 -49zM703.5 2020q8.5 -17 39.5 -17h58 q39 0 61 27l287 329q21 23 12 42.5t-41 19.5h-102q-37 0 -62 -31l-241 -328q-20 -25 -11.5 -42z" />
<glyph unicode="&#xdb;" d="M168 1444l10 -883q3 -292 147.5 -441t426.5 -149q281 0 424.5 149t146.5 441l8 883q0 49 -49 49h-113q-49 0 -49 -51l8 -717q3 -237 -88.5 -344t-287.5 -107q-197 0 -289.5 107t-89.5 344l8 717q0 51 -49 51h-115q-49 0 -49 -49zM430 1599h139l146 197q15 23 34.5 23 t34.5 -23l146 -197h139l-246 377h-147z" />
<glyph unicode="&#xdc;" d="M168 1444l10 -883q3 -292 147.5 -441t426.5 -149q281 0 424.5 149t146.5 441l8 883q0 49 -49 49h-113q-49 0 -49 -51l8 -717q3 -237 -88.5 -344t-287.5 -107q-197 0 -289.5 107t-89.5 344l8 717q0 51 -49 51h-115q-49 0 -49 -49zM430 1774q0 -52 49 -52h119q49 0 49 52 v116q0 49 -49 49h-119q-49 0 -49 -49v-116zM850 1774q0 -52 49 -52h119q49 0 49 52v116q0 49 -49 49h-119q-49 0 -49 -49v-116z" />
<glyph unicode="&#xdd;" d="M147.5 1476.5q-9.5 -16.5 2.5 -42.5l444 -893q14 -32 14 -64v-428q0 -49 51 -49h172q52 0 52 49v428q0 32 14 64l453 893q14 26 4 42.5t-39 16.5h-113q-40 0 -57 -35l-359 -665q-14 -26 -33.5 -26t-33.5 26l-363 665q-17 35 -57 35h-113q-29 0 -38.5 -16.5zM703.5 2020 q8.5 -17 39.5 -17h58q39 0 61 27l287 329q21 23 12 42.5t-41 19.5h-102q-37 0 -62 -31l-241 -328q-20 -25 -11.5 -42z" />
<glyph unicode="&#xde;" d="M268 0h201v289q0 49 51 49h205q250 0 379 113t129 333t-128.5 332.5t-379.5 112.5h-205q-51 0 -51 51v213h-201v-1493zM469 555v459q0 49 51 49h205q141 0 218 -73t77 -206q0 -134 -77.5 -207t-217.5 -73h-205q-51 0 -51 51z" />
<glyph unicode="&#xdf;" d="M215 0h277l-50 1104q0 36 4 59q23 152 89.5 216.5t191.5 64.5q48 0 76.5 -2.5t62 -13.5t57 -32.5t49.5 -58.5t52 -94q24 -53 -33 -65q-154 -33 -211 -111t-57 -207q0 -53 20 -105t42 -85.5t57 -79.5l12 -15l84 -55q105 -65 129 -104q31 -45 31 -84q0 -62 -60.5 -94.5 t-177.5 -32.5q-132 0 -285 59v-244q146 -49 275 -49q211 0 322.5 91.5t111.5 263.5q0 104 -50.5 175t-209.5 173l-57 37q-66 42 -94.5 82t-28.5 88q0 97 83 154t234 65q-3 224 -112 340t-318 116q-218 0 -337.5 -109t-119.5 -310z" />
<glyph unicode="&#xe0;" d="M276 326q0 189 127 285t377 96h209q49 0 49 18q0 130 -79 203.5t-238 83.5q-156 0 -303 -64q-26 -12 -43 -2.5t-17 37.5v43q0 42 41 57q177 64 340 64q244 0 364 -125.5t120 -382.5v-590q0 -49 -49 -49h-84q-52 0 -52 49v23q0 34 -15 39.5t-40 -19.5q-121 -121 -332 -121 q-170 0 -272.5 97t-102.5 258zM432 406q-3 -33 6 -60q21 -59 78 -76.5t164 -17.5q73 0 117 9.5t77.5 39t47 83t14.5 140.5q0 47 -49 47h-117q-184 0 -257 -37.5t-81 -127.5zM476 2006.5q10 16.5 40 16.5h90q38 0 62 -30l213 -283q19 -26 10 -43.5t-41 -17.5h-156 q-41 0 -59 34l-154 281q-15 26 -5 42.5z" />
<glyph unicode="&#xe1;" d="M276 326q0 189 127 285t377 96h209q49 0 49 18q0 130 -79 203.5t-238 83.5q-156 0 -303 -64q-26 -12 -43 -2.5t-17 37.5v43q0 42 41 57q177 64 340 64q244 0 364 -125.5t120 -382.5v-590q0 -49 -49 -49h-84q-52 0 -52 49v23q0 34 -15 39.5t-40 -19.5q-121 -121 -332 -121 q-170 0 -272.5 97t-102.5 258zM432 406q-3 -33 6 -60q21 -59 78 -76.5t164 -17.5q73 0 117 9.5t77.5 39t47 83t14.5 140.5q0 47 -49 47h-117q-184 0 -257 -37.5t-81 -127.5zM732 1647.5q-9 17.5 11 42.5l242 327q25 31 62 31h102q32 0 40.5 -19t-11.5 -42l-287 -330 q-22 -27 -62 -27h-57q-31 0 -40 17.5z" />
<glyph unicode="&#xe2;" d="M276 326q0 189 127 285t377 96h209q49 0 49 18q0 130 -79 203.5t-238 83.5q-156 0 -303 -64q-26 -12 -43 -2.5t-17 37.5v43q0 42 41 57q177 64 340 64q244 0 364 -125.5t120 -382.5v-590q0 -49 -49 -49h-84q-52 0 -52 49v23q0 34 -15 39.5t-40 -19.5q-121 -121 -332 -121 q-170 0 -272.5 97t-102.5 258zM432 406q-3 -33 6 -60q21 -59 78 -76.5t164 -17.5q73 0 117 9.5t77.5 39t47 83t14.5 140.5q0 47 -49 47h-117q-184 0 -257 -37.5t-81 -127.5zM459 1227l246 377h147l246 -377h-140l-145 196q-15 23 -35 23t-35 -23l-145 -196h-139z" />
<glyph unicode="&#xe3;" d="M276 326q0 189 127 285t377 96h209q49 0 49 18q0 130 -79 203.5t-238 83.5q-156 0 -303 -64q-26 -12 -43 -2.5t-17 37.5v43q0 42 41 57q177 64 340 64q244 0 364 -125.5t120 -382.5v-590q0 -49 -49 -49h-84q-52 0 -52 49v23q0 34 -15 39.5t-40 -19.5q-121 -121 -332 -121 q-170 0 -272.5 97t-102.5 258zM432 406q-3 -33 6 -60q21 -59 78 -76.5t164 -17.5q73 0 117 9.5t77.5 39t47 83t14.5 140.5q0 47 -49 47h-117q-184 0 -257 -37.5t-81 -127.5zM453 1663q11 111 59.5 170t130.5 59q73 0 139 -61l58 -55q42 -39 67 -39q40 0 58 37q11 29 16 69 q6 49 51 49h25q52 0 49 -53q-10 -110 -60.5 -169.5t-132.5 -59.5q-73 0 -139 61l-57 55q-42 39 -68 39q-38 0 -55 -36q-13 -26 -16 -70q-6 -49 -54 -49h-24q-53 0 -47 53z" />
<glyph unicode="&#xe4;" d="M276 326q0 189 127 285t377 96h209q49 0 49 18q0 130 -79 203.5t-238 83.5q-156 0 -303 -64q-26 -12 -43 -2.5t-17 37.5v43q0 42 41 57q177 64 340 64q244 0 364 -125.5t120 -382.5v-590q0 -49 -49 -49h-84q-52 0 -52 49v23q0 34 -15 39.5t-40 -19.5q-121 -121 -332 -121 q-170 0 -272.5 97t-102.5 258zM432 406q-3 -33 6 -60q21 -59 78 -76.5t164 -17.5q73 0 117 9.5t77.5 39t47 83t14.5 140.5q0 47 -49 47h-117q-184 0 -257 -37.5t-81 -127.5zM459 1401v117q0 49 49 49h119q49 0 49 -49v-117q0 -51 -49 -51h-119q-49 0 -49 51zM879 1401v117 q0 49 49 49h119q49 0 49 -49v-117q0 -51 -49 -51h-119q-49 0 -49 51z" />
<glyph unicode="&#xe5;" d="M276 326q0 189 127 285t377 96h209q49 0 49 18q0 130 -79 203.5t-238 83.5q-156 0 -303 -64q-26 -12 -43 -2.5t-17 37.5v43q0 42 41 57q177 64 340 64q244 0 364 -125.5t120 -382.5v-590q0 -49 -49 -49h-84q-52 0 -52 49v23q0 34 -15 39.5t-40 -19.5q-121 -121 -332 -121 q-170 0 -272.5 97t-102.5 258zM432 406q-3 -33 6 -60q21 -59 78 -76.5t164 -17.5q73 0 117 9.5t77.5 39t47 83t14.5 140.5q0 47 -49 47h-117q-184 0 -257 -37.5t-81 -127.5zM504 1524q0 115 80 194.5t194 79.5q116 0 195.5 -79.5t79.5 -194.5q0 -116 -79.5 -195.5 t-195.5 -79.5q-114 0 -194 80t-80 195zM627 1524q0 -65 43.5 -108.5t107.5 -43.5t108 44.5t44 107.5t-44 107t-108 44t-107.5 -43.5t-43.5 -107.5z" />
<glyph unicode="&#xe6;" d="M-139 326q0 242 121.5 342t382.5 100h206q52 0 52 16q0 35 -22 76.5t-61 80t-102 64t-135 25.5q-193 0 -360 -92v131q206 78 381 78q122 0 219 -36.5t157 -104.5q34 -37 68 -5q146 146 383 146q145 0 258 -67.5t172 -176.5t59 -237v-91h-790q-28 0 -40.5 -14t-6.5 -39 q29 -121 131.5 -198.5t259.5 -77.5q205 0 403 104v-264q-94 -39 -141 -57t-127 -38t-145 -20q-301 0 -459 193q-34 43 -68 0q-141 -193 -399 -193q-189 0 -293 93.5t-104 261.5zM43 395q0 -78 65 -124t177 -46q156 0 245.5 87t92.5 266q-3 45 -52 45h-133q-95 0 -156 -5 t-110.5 -19t-75.5 -40t-39.5 -65.5t-13.5 -98.5zM811 772q-6 -25 6.5 -39t38.5 -14l547 2q25 0 38 13.5t9 37.5q-20 108 -101 190t-196 82q-128 0 -219 -79.5t-123 -192.5z" />
<glyph unicode="&#xe7;" d="M307 559q0 274 150.5 431t412.5 157q154 0 285 -51q39 -14 39 -58v-57q0 -28 -16.5 -37.5t-42.5 2.5q-125 55 -256 55q-177 0 -272 -117.5t-95 -324.5q13 -143 94 -202t264 -68q18 0 64 -1t70.5 -1t61.5 5t67 15q27 9 42 -0.5t15 -36.5l2 -184q3 -44 -37 -59 q-118 -48 -242 -54l2 -2q84 -103 84 -186q0 -180 -237 -180q-68 0 -133 12q-43 12 -43 57v27q0 52 55 39q47 -12 100 -12q119 0 119 94q0 47 -47 117q-12 18 -12 34q-229 19 -361.5 175.5t-132.5 410.5z" />
<glyph unicode="&#xe8;" d="M236 526q0 -262 151 -404t422 -151q174 0 377 62q40 12 37 57l-2 150q0 53 -58 36q-53 -15 -118.5 -22.5t-105.5 -8.5t-124 -1q-56 3 -92.5 6.5t-79 11.5t-69.5 20.5t-55 33.5t-44.5 50t-28.5 70.5t-16 95.5q-3 52 49 52h735q50 0 50 51v18q-19 242 -136.5 363.5 t-341.5 130.5q-249 0 -394 -169.5t-156 -451.5zM450 2006.5q-10 -16.5 5 -42.5l153 -281q18 -34 60 -34h155q32 0 41 17.5t-10 43.5l-213 283q-24 30 -61 30h-91q-29 0 -39 -16.5zM455 786q24 100 115.5 182.5t215.5 82.5q56 0 107 -24.5t88.5 -64.5t64.5 -83t44 -88 q9 -24 -3.5 -40t-39.5 -16l-545 -2q-27 0 -40 14.5t-7 38.5z" />
<glyph unicode="&#xe9;" d="M236 526q0 -262 151 -404t422 -151q174 0 377 62q40 12 37 57l-2 150q0 53 -58 36q-53 -15 -118.5 -22.5t-105.5 -8.5t-124 -1q-56 3 -92.5 6.5t-79 11.5t-69.5 20.5t-55 33.5t-44.5 50t-28.5 70.5t-16 95.5q-3 52 49 52h735q50 0 50 51v18q-19 242 -136.5 363.5 t-341.5 130.5q-249 0 -394 -169.5t-156 -451.5zM455 786q24 100 115.5 182.5t215.5 82.5q56 0 107 -24.5t88.5 -64.5t64.5 -83t44 -88q9 -24 -3.5 -40t-39.5 -16l-545 -2q-27 0 -40 14.5t-7 38.5zM705.5 1647.5q8.5 -17.5 39.5 -17.5h58q39 0 61 27l287 330q20 23 11.5 42 t-40.5 19h-102q-37 0 -62 -31l-241 -327q-20 -25 -11.5 -42.5z" />
<glyph unicode="&#xea;" d="M236 526q0 -262 151 -404t422 -151q174 0 377 62q40 12 37 57l-2 150q0 53 -58 36q-53 -15 -118.5 -22.5t-105.5 -8.5t-124 -1q-56 3 -92.5 6.5t-79 11.5t-69.5 20.5t-55 33.5t-44.5 50t-28.5 70.5t-16 95.5q-3 52 49 52h735q50 0 50 51v18q-19 242 -136.5 363.5 t-341.5 130.5q-249 0 -394 -169.5t-156 -451.5zM432 1227h139l146 196q15 23 34.5 23t34.5 -23l146 -196h139l-246 377h-147zM455 786q24 100 115.5 182.5t215.5 82.5q56 0 107 -24.5t88.5 -64.5t64.5 -83t44 -88q9 -24 -3.5 -40t-39.5 -16l-545 -2q-27 0 -40 14.5t-7 38.5z " />
<glyph unicode="&#xeb;" d="M236 526q0 -262 151 -404t422 -151q174 0 377 62q40 12 37 57l-2 150q0 53 -58 36q-53 -15 -118.5 -22.5t-105.5 -8.5t-124 -1q-56 3 -92.5 6.5t-79 11.5t-69.5 20.5t-55 33.5t-44.5 50t-28.5 70.5t-16 95.5q-3 52 49 52h735q50 0 50 51v18q-19 242 -136.5 363.5 t-341.5 130.5q-249 0 -394 -169.5t-156 -451.5zM432 1401q0 -51 49 -51h119q49 0 49 51v117q0 49 -49 49h-119q-49 0 -49 -49v-117zM455 786q24 100 115.5 182.5t215.5 82.5q56 0 107 -24.5t88.5 -64.5t64.5 -83t44 -88q9 -24 -3.5 -40t-39.5 -16l-545 -2q-27 0 -40 14.5 t-7 38.5zM852 1401q0 -51 49 -51h119q49 0 49 51v117q0 49 -49 49h-119q-49 0 -49 -49v-117z" />
<glyph unicode="&#xec;" d="M524 1621.5q-10 -16.5 4 -42.5l154 -281q18 -34 59 -34h156q32 0 41 17.5t-10 43.5l-213 283q-24 30 -62 30h-90q-29 0 -39 -16.5zM723 49q-1 -23 12 -36t37 -13h158q51 0 51 49v1020q0 51 -51 51h-84q-46 0 -49 -51z" />
<glyph unicode="&#xed;" d="M521 1238q9 -17 40 -17h57q39 0 62 26l287 330q20 25 11.5 43t-40.5 18h-102q-38 0 -62 -30l-242 -328q-20 -25 -11 -42zM596 49q0 -49 49 -49h152q25 0 38.5 13t12.5 36l-70 1020q-3 51 -49 51h-84q-49 0 -49 -51v-1020z" />
<glyph unicode="&#xee;" d="M463 1279.5q9 -17.5 39 -17.5h30q38 0 62 30l121 166q15 23 34.5 23t34.5 -23l123 -166q24 -30 62 -30h28q31 0 40.5 17.5t-7.5 43.5l-184 283q-22 32 -62 32h-69q-41 0 -60 -32l-186 -283q-15 -26 -6 -43.5zM664 49q-1 -23 12 -36t37 -13h125q52 0 49 49l-21 1020 q0 51 -49 51h-84q-48 0 -51 -51z" />
<glyph unicode="&#xef;" d="M432 1401q0 -51 49 -51h119q49 0 49 51v117q0 49 -49 49h-119q-49 0 -49 -49v-117zM637 49q0 -49 49 -49h105q51 0 51 49v1020q0 51 -51 51h-84q-50 0 -50 -51zM852 1401q0 -51 49 -51h119q49 0 49 51v117q0 49 -49 49h-119q-49 0 -49 -49v-117z" />
<glyph unicode="&#xf0;" d="M236 537q0 -255 141.5 -410.5t372.5 -155.5t372.5 155.5t141.5 410.5q0 174 -57 318t-183 286l-123 139q-18 22 -13 40.5t32 27.5l188 61q47 15 31 64v2q-15 46 -64 30l-246 -82q-40 -11 -67 19l-76 86q-22 28 -61 28h-109q-32 0 -40.5 -18t13.5 -43l84 -94 q19 -23 14.5 -42t-32.5 -28l-172 -55q-49 -15 -33 -64v-4q15 -47 64 -30l231 77q41 11 70 -18l71 -82q33 -40 19 -55q-5 -6 -17 -4q-25 2 -55 2q-221 0 -359 -155.5t-138 -405.5zM430 537q0 195 92.5 303t259.5 108q63 0 146 -22q32 -10 53 -37q88 -131 88 -352 q0 -53 -8 -93.5t-21 -68t-36.5 -47t-46.5 -30t-60 -16t-68 -7t-79 -1.5q-49 0 -80 1.5t-68.5 7t-60 16t-46.5 30t-36.5 47t-20.5 68t-8 93.5z" />
<glyph unicode="&#xf1;" d="M248 51q-3 -51 49 -51h154q49 0 49 51l-29 592q0 168 83.5 261t248.5 93q121 0 174 -77t53 -240l-37 -629q-3 -51 49 -51h160q52 0 49 51l-26 625q-21 471 -402 471q-147 0 -303 -107q-25 -19 -42 -10t-17 41v8q0 51 -49 51h-86q-49 0 -52 -49zM406 1663q-6 -53 47 -53 h24q47 0 53 49q3 41 17 70q17 36 55 36q26 0 68 -39l57 -55q66 -61 139 -61q82 0 132.5 59.5t60.5 169.5q3 53 -49 53h-25q-45 0 -51 -49q-5 -40 -16 -69q-18 -37 -58 -37q-25 0 -67 39l-58 55q-66 61 -139 61q-82 0 -130.5 -59t-59.5 -170z" />
<glyph unicode="&#xf2;" d="M236 559q0 -275 136.5 -431.5t377.5 -156.5q240 0 377 156.5t137 431.5q0 276 -137 432t-377 156q-242 0 -378 -155.5t-136 -432.5zM388 2006.5q-10 -16.5 5 -42.5l154 -281q18 -34 59 -34h156q32 0 41 17.5t-10 43.5l-213 283q-24 30 -62 30h-90q-30 0 -40 -16.5z M430 592q0 195 86 307.5t234 112.5q147 0 233 -113.5t86 -306.5q0 -95 -21 -156.5t-66 -93t-98 -42.5t-134 -11q-65 0 -110.5 6.5t-87.5 25t-67 51.5t-40 88t-15 132z" />
<glyph unicode="&#xf3;" d="M236 559q0 -275 136.5 -431.5t377.5 -156.5q240 0 377 156.5t137 431.5q0 276 -137 432t-377 156q-242 0 -378 -155.5t-136 -432.5zM430 592q0 195 86 307.5t234 112.5q147 0 233 -113.5t86 -306.5q0 -95 -21 -156.5t-66 -93t-98 -42.5t-134 -11q-65 0 -110.5 6.5 t-87.5 25t-67 51.5t-40 88t-15 132zM644 1647.5q9 -17.5 40 -17.5h57q40 0 62 27l287 330q20 23 11.5 42t-40.5 19h-103q-36 0 -61 -31l-242 -327q-20 -25 -11 -42.5z" />
<glyph unicode="&#xf4;" d="M236 559q0 -275 136.5 -431.5t377.5 -156.5q240 0 377 156.5t137 431.5q0 276 -137 432t-377 156q-242 0 -378 -155.5t-136 -432.5zM371 1227h139l145 196q15 23 35 23t35 -23l145 -196h140l-246 377h-148zM430 592q0 195 86 307.5t234 112.5q147 0 233 -113.5t86 -306.5 q0 -95 -21 -156.5t-66 -93t-98 -42.5t-134 -11q-65 0 -110.5 6.5t-87.5 25t-67 51.5t-40 88t-15 132z" />
<glyph unicode="&#xf5;" d="M236 559q0 -275 136.5 -431.5t377.5 -156.5q240 0 377 156.5t137 431.5q0 276 -137 432t-377 156q-242 0 -378 -155.5t-136 -432.5zM365 1663q-6 -53 47 -53h24q47 0 53 49q3 41 17 70q17 36 55 36q26 0 68 -39l57 -55q66 -61 139 -61q82 0 132.5 59.5t60.5 169.5 q3 53 -49 53h-25q-45 0 -51 -49q-5 -40 -16 -69q-18 -37 -58 -37q-25 0 -67 39l-58 55q-66 61 -139 61q-82 0 -130.5 -59t-59.5 -170zM430 592q0 195 86 307.5t234 112.5q147 0 233 -113.5t86 -306.5q0 -95 -21 -156.5t-66 -93t-98 -42.5t-134 -11q-65 0 -110.5 6.5 t-87.5 25t-67 51.5t-40 88t-15 132z" />
<glyph unicode="&#xf6;" d="M236 559q0 -275 136.5 -431.5t377.5 -156.5q240 0 377 156.5t137 431.5q0 276 -137 432t-377 156q-242 0 -378 -155.5t-136 -432.5zM371 1401q0 -51 49 -51h119q49 0 49 51v117q0 49 -49 49h-119q-49 0 -49 -49v-117zM430 592q0 195 86 307.5t234 112.5q147 0 233 -113.5 t86 -306.5q0 -95 -21 -156.5t-66 -93t-98 -42.5t-134 -11q-65 0 -110.5 6.5t-87.5 25t-67 51.5t-40 88t-15 132zM791 1401q0 -51 49 -51h118q50 0 50 51v117q0 49 -50 49h-118q-49 0 -49 -49v-117z" />
<glyph unicode="&#xf7;" d="M84 567q0 -51 49 -51h1233q49 0 49 51v119q0 51 -49 51h-1233q-49 0 -49 -51v-119zM602 100q0 -51 49 -51h197q49 0 49 51v195q0 49 -49 49h-197q-49 0 -49 -49v-195zM602 948q0 -49 49 -49h197q49 0 49 49v197q0 24 -11.5 32.5t-37.5 8.5h-197q-26 0 -37.5 -8.5 t-11.5 -32.5v-197z" />
<glyph unicode="&#xf8;" d="M236 559q0 277 136 432.5t378 155.5q55 0 96 -8l102 295q16 42 58 39l49 -3q28 0 39.5 -15.5t3.5 -41.5l-97 -323q126 -67 194.5 -203t68.5 -328q0 -275 -137 -431.5t-377 -156.5q-28 0 -82 4l-39 -131q-14 -41 -58 -41l-127 4q-27 1 -38 17t-3 43l64 180 q-113 71 -172 201.5t-59 310.5zM430 592q0 -118 32.5 -183t96.5 -94l242 693q-32 4 -51 4q-148 0 -234 -112.5t-86 -307.5zM762 289q61 1 105 8t84.5 26.5t65 52.5t38.5 87t14 129q0 225 -115 340z" />
<glyph unicode="&#xf9;" d="M276 442q0 -232 100 -351.5t294 -119.5q182 0 301 125q25 26 40 21t13 -39v-27q-3 -51 47 -51l76 2q48 3 51 51l19 1020q0 25 -13.5 38t-36.5 11l-98 -2q-48 -3 -51 -49l-19 -426q-9 -167 -91.5 -260.5t-229.5 -93.5q-122 0 -180.5 77.5t-67.5 239.5v461q0 51 -49 51h-55 q-50 0 -50 -51v-627zM456 2006.5q-10 -16.5 5 -42.5l153 -281q18 -34 60 -34h155q32 0 41 17.5t-10 43.5l-213 283q-24 30 -61 30h-90q-30 0 -40 -16.5z" />
<glyph unicode="&#xfa;" d="M276 442q0 -232 100 -351.5t294 -119.5q182 0 301 125q25 26 40 21t13 -39v-27q-3 -51 47 -51l76 2q48 3 51 51l19 1020q0 25 -13.5 38t-36.5 11l-98 -2q-48 -3 -51 -49l-19 -426q-9 -167 -91.5 -260.5t-229.5 -93.5q-122 0 -180.5 77.5t-67.5 239.5v461q0 51 -49 51h-55 q-50 0 -50 -51v-627zM712 1647.5q9 -17.5 40 -17.5h57q39 0 61 27l287 330q20 23 11.5 42t-40.5 19h-102q-36 0 -61 -31l-242 -327q-20 -25 -11 -42.5z" />
<glyph unicode="&#xfb;" d="M276 442q0 -232 100 -351.5t294 -119.5q182 0 301 125q25 26 40 21t13 -39v-27q-3 -51 47 -51l76 2q48 3 51 51l19 1020q0 25 -13.5 38t-36.5 11l-98 -2q-48 -3 -51 -49l-19 -426q-9 -167 -91.5 -260.5t-229.5 -93.5q-122 0 -180.5 77.5t-67.5 239.5v461q0 51 -49 51h-55 q-50 0 -50 -51v-627zM438 1227h140l145 196q15 23 35 23t35 -23l145 -196h139l-246 377h-147z" />
<glyph unicode="&#xfc;" d="M276 442q0 -232 100 -351.5t294 -119.5q182 0 301 125q25 26 40 21t13 -39v-27q-3 -51 47 -51l76 2q48 3 51 51l19 1020q0 25 -13.5 38t-36.5 11l-98 -2q-48 -3 -51 -49l-19 -426q-9 -167 -91.5 -260.5t-229.5 -93.5q-122 0 -180.5 77.5t-67.5 239.5v461q0 51 -49 51h-55 q-50 0 -50 -51v-627zM438 1401q0 -51 49 -51h119q49 0 49 51v117q0 49 -49 49h-119q-49 0 -49 -49v-117zM858 1401q0 -51 49 -51h119q49 0 49 51v117q0 49 -49 49h-119q-49 0 -49 -49v-117z" />
<glyph unicode="&#xfd;" d="M209 -352v-146q0 -49 49 -49h117q248 0 446 443l451 1167q9 26 -2 41.5t-39 15.5h-92q-40 0 -58 -37l-256 -548q-14 -28 -33 -29.5t-36 24.5l-338 555q-20 35 -60 35h-90q-29 0 -40 -16.5t1 -42.5l437 -934q16 -34 0 -68l-50 -98q-14 -28 -32 -51q-3 -4 -23 -29.5 t-28 -35t-28.5 -34t-32.5 -36t-32.5 -29.5t-35.5 -26.5t-33.5 -15.5t-34.5 -7h-78q-49 0 -49 -49zM613.5 1647.5q8.5 -17.5 39.5 -17.5h58q39 0 61 27l287 330q20 23 11.5 42t-40.5 19h-102q-37 0 -62 -31l-241 -327q-20 -25 -11.5 -42.5z" />
<glyph unicode="&#xfe;" d="M250 1505l8 -1972q0 -49 51 -49h84q51 0 51 49l-10 545q-1 34 14.5 38t38.5 -22q108 -123 306 -123q204 0 331 162t127 426t-127 426t-331 162q-198 0 -306 -123q-23 -26 -38 -22t-15 38v465q0 51 -49 51h-86q-49 0 -49 -51zM434 559q0 202 84 318t230 116t229.5 -115.5 t83.5 -318.5q0 -80 -14.5 -137t-39 -92t-65.5 -55.5t-86 -27.5t-108 -7t-108 7t-86 27.5t-66 55.5t-39.5 92t-14.5 137z" />
<glyph unicode="&#xff;" d="M209 -352v-146q0 -49 49 -49h117q248 0 446 443l451 1167q9 26 -2 41.5t-39 15.5h-92q-40 0 -58 -37l-256 -548q-14 -28 -33 -29.5t-36 24.5l-338 555q-20 35 -60 35h-90q-29 0 -40 -16.5t1 -42.5l437 -934q16 -34 0 -68l-50 -98q-14 -28 -32 -51q-3 -4 -23 -29.5 t-28 -35t-28.5 -34t-32.5 -36t-32.5 -29.5t-35.5 -26.5t-33.5 -15.5t-34.5 -7h-78q-49 0 -49 -49zM340 1401q0 -51 49 -51h119q49 0 49 51v117q0 49 -49 49h-119q-49 0 -49 -49v-117zM760 1401q0 -51 49 -51h119q49 0 49 51v117q0 49 -49 49h-119q-49 0 -49 -49v-117z" />
<glyph unicode="&#x152;" d="M-104 748q0 -369 223 -558.5t657 -189.5h778q52 0 52 49v180q0 52 -52 52h-424q-49 0 -49 49v401q0 49 49 49h396q51 0 51 51v70q0 49 -51 49h-396q-49 0 -49 51v312q0 51 49 51h406q51 0 51 49v31q0 49 -51 49h-760q-433 0 -656.5 -189.5t-223.5 -555.5zM109 748 q0 323 157.5 469.5t483.5 146.5h79q50 0 50 -51v-983q0 -49 -50 -49h-79q-155 0 -280 39t-202 105.5t-118 149t-41 173.5z" />
<glyph unicode="&#x153;" d="M2 559q0 -134 34 -246t91.5 -186t132.5 -115t158 -41q107 0 194 44.5t131 129.5q12 22 32.5 22t35.5 -20q62 -83 164.5 -129.5t193.5 -46.5q57 0 102.5 8t77 18.5t105.5 39.5q39 13 39 57v197q0 29 -15.5 38.5t-41.5 -1.5q-12 -5 -38 -17t-34.5 -16t-28 -12t-28.5 -10.5 t-26 -7t-30.5 -5.5t-31.5 -2.5t-39 -1.5q-80 0 -132 14.5t-92 53.5t-61.5 108.5t-30.5 179.5q-6 54 47 54h537q49 0 49 51v39q0 41 -15 91.5t-46 103.5t-72.5 96.5t-101 71.5t-125.5 28q-114 0 -187.5 -42t-140.5 -132q-15 -22 -35.5 -22t-32.5 24q-43 82 -130.5 127 t-192.5 45q-73 0 -146.5 -41t-134 -114t-98 -186.5t-37.5 -246.5zM195 623q0 175 69 284t154 109q127 0 208 -106.5t81 -286.5q0 -176 -79.5 -267.5t-209.5 -91.5q-85 0 -154 94t-69 265zM879 815q-12 16 2 41q19 34 30.5 53t35.5 48t48 44t61.5 27t82.5 12q56 0 123.5 -60 t95.5 -126q10 -24 -2.5 -38.5t-40.5 -14.5l-395 -2q-29 0 -41 16z" />
<glyph unicode="&#x178;" d="M147.5 1476.5q-9.5 -16.5 2.5 -42.5l444 -893q14 -32 14 -64v-428q0 -49 51 -49h172q52 0 52 49v428q0 32 14 64l453 893q14 26 4 42.5t-39 16.5h-113q-40 0 -57 -35l-359 -665q-14 -26 -33.5 -26t-33.5 26l-363 665q-17 35 -57 35h-113q-29 0 -38.5 -16.5zM430 1774 q0 -52 49 -52h119q49 0 49 52v116q0 49 -49 49h-119q-49 0 -49 -49v-116zM850 1774q0 -52 49 -52h119q49 0 49 52v116q0 49 -49 49h-119q-49 0 -49 -49v-116z" />
<glyph unicode="&#x2c6;" d="M430 1262h139l146 196q15 23 34.5 23t34.5 -23l146 -196h139l-246 376h-147z" />
<glyph unicode="&#x2dc;" d="M424 1362q-6 -53 47 -53h25q47 0 53 49q3 42 16 69q18 37 56 37q25 0 67 -39l57 -55q66 -61 140 -61q82 0 132 59.5t60 169.5q3 53 -49 53h-24q-46 0 -52 -49q-5 -40 -16 -69q-18 -37 -57 -37q-26 0 -68 39l-57 55q-66 61 -140 61q-82 0 -130.5 -59t-59.5 -170z" />
<glyph unicode="&#x2000;" horiz-adv-x="1210" />
<glyph unicode="&#x2001;" horiz-adv-x="2421" />
<glyph unicode="&#x2002;" horiz-adv-x="1210" />
<glyph unicode="&#x2003;" horiz-adv-x="2421" />
<glyph unicode="&#x2004;" horiz-adv-x="807" />
<glyph unicode="&#x2005;" horiz-adv-x="605" />
<glyph unicode="&#x2006;" horiz-adv-x="403" />
<glyph unicode="&#x2007;" horiz-adv-x="403" />
<glyph unicode="&#x2008;" horiz-adv-x="302" />
<glyph unicode="&#x2009;" horiz-adv-x="484" />
<glyph unicode="&#x200a;" horiz-adv-x="134" />
<glyph unicode="&#x2010;" d="M475 532l12 76q6 45 54 45l438 9q26 1 38 -13t7 -41l-10 -73q-9 -48 -53 -48l-439 -8q-26 0 -38.5 14t-8.5 39z" />
<glyph unicode="&#x2011;" d="M475 532l12 76q6 45 54 45l438 9q26 1 38 -13t7 -41l-10 -73q-9 -48 -53 -48l-439 -8q-26 0 -38.5 14t-8.5 39z" />
<glyph unicode="&#x2012;" d="M475 532l12 76q6 45 54 45l438 9q26 1 38 -13t7 -41l-10 -73q-9 -48 -53 -48l-439 -8q-26 0 -38.5 14t-8.5 39z" />
<glyph unicode="&#x2013;" d="M238 539q0 -50 51 -50h923q50 0 50 50v45q0 49 -50 49h-923q-51 0 -51 -49v-45z" />
<glyph unicode="&#x2014;" d="M-274 539q0 -50 51 -50h1947q50 0 50 50v45q0 49 -50 49h-1947q-51 0 -51 -49v-45z" />
<glyph unicode="&#x2018;" d="M575 965q0 -52 52 -52h159q23 0 36.5 13.5t13.5 38.5v131q0 32 8 59l78 307q7 26 -5 42t-38 16h-62q-42 0 -57 -37l-168 -328q-17 -28 -17 -61v-129z" />
<glyph unicode="&#x2019;" d="M582 995q-7 -26 4.5 -41.5t38.5 -15.5h57q41 0 59 37l166 321q15 30 15 62v102q0 49 -50 49h-155q-51 0 -51 -49v-104q0 -28 -9 -62z" />
<glyph unicode="&#x201a;" d="M612 -182q-7 -26 4.5 -41t38.5 -15h31q42 0 59 35l132 256q14 28 14 62v90q0 49 -49 49h-113q-49 0 -49 -49v-92q0 -31 -8 -62z" />
<glyph unicode="&#x201c;" d="M319 932q0 -51 50 -51h161q52 0 52 51v133q0 30 8 61l80 312q6 26 -5.5 40.5t-37.5 14.5h-64q-43 0 -59 -37l-170 -332q-15 -30 -15 -61v-131zM829 932q0 -51 50 -51h161q52 0 52 51v133q0 30 8 61l80 312q6 26 -5.5 40.5t-37.5 14.5h-64q-43 0 -59 -37l-170 -332 q-15 -30 -15 -61v-131z" />
<glyph unicode="&#x201d;" d="M350 977q-6 -26 5.5 -40.5t37.5 -14.5h53q42 0 58 34l158 308q16 27 16 61v119q0 49 -51 49h-146q-51 0 -51 -49v-121q0 -29 -6 -59zM825 977q-6 -26 5.5 -40.5t39.5 -14.5h52q43 0 59 34l158 308q14 28 14 61v119q0 49 -49 49h-146q-51 0 -51 -49v-121q0 -32 -8 -59z " />
<glyph unicode="&#x201e;" d="M317 -182q-7 -26 4.5 -41t38.5 -15h66q40 0 57 35l172 338q17 28 17 62v133q0 51 -51 51h-164q-51 0 -51 -51v-135q0 -27 -9 -62zM831 -182q-6 -26 5.5 -41t37.5 -15h66q40 0 57 35l174 338q15 30 15 62v133q0 51 -49 51h-166q-49 0 -49 -51v-135q0 -27 -9 -62z" />
<glyph unicode="&#x2022;" d="M453 762q0 -124 86.5 -210.5t210.5 -86.5q126 0 211.5 86t85.5 211q0 124 -85.5 209.5t-209.5 85.5q-126 0 -212.5 -85.5t-86.5 -209.5z" />
<glyph unicode="&#x2026;" d="M-92 49q0 -49 49 -49h223q49 0 49 49v264q0 52 -49 52h-223q-49 0 -49 -52v-264zM590 49q0 -49 49 -49h221q51 0 51 49v264q0 52 -51 52h-221q-49 0 -49 -52v-264zM1270 49q0 -49 51 -49h221q51 0 51 49v264q0 52 -51 52h-221q-51 0 -51 -52v-264z" />
<glyph unicode="&#x202f;" horiz-adv-x="484" />
<glyph unicode="&#x2039;" d="M516 596q0 -35 29 -61l379 -338q25 -22 43 -14t18 40v72q0 37 -27 61l-233 209q-41 35 0 70l233 209q27 24 27 61v72q0 32 -18 40.5t-43 -13.5l-379 -338q-29 -26 -29 -62v-8z" />
<glyph unicode="&#x203a;" d="M516 223q0 -32 18.5 -40t43.5 14l378 338q29 26 29 61v8q0 36 -29 62l-378 338q-25 22 -43.5 13.5t-18.5 -40.5v-72q0 -37 27 -61l233 -209q41 -35 0 -70l-233 -209q-27 -24 -27 -61v-72z" />
<glyph unicode="&#x205f;" horiz-adv-x="605" />
<glyph unicode="&#x20ac;" d="M178 537l23 65q14 41 55 41h47q49 0 49 47v55v56q0 49 -49 49h-80q-29 0 -39.5 16.5t0.5 42.5l13 27q18 37 59 37h68q46 0 55 47q47 235 199.5 367.5t377.5 132.5q182 0 340 -119q29 -20 29 -62v-36q0 -34 -17 -41t-42 18q-73 68 -144.5 98.5t-156.5 30.5 q-141 0 -240.5 -104.5t-140.5 -276.5q-6 -26 6 -40.5t39 -14.5h456q29 0 39.5 -17t-0.5 -43l-12 -24q-17 -39 -57 -39h-449q-51 0 -51 -47v-113q0 -47 51 -47h336q28 0 39 -15.5t2 -41.5l-22 -66q-15 -41 -58 -41h-256q-30 0 -41 -16t2 -41q48 -77 140.5 -139t205.5 -62 q86 0 158 31.5t152 103.5q26 22 43.5 15.5t17.5 -39.5v-178q0 -39 -29 -62q-164 -121 -340 -121q-220 0 -373.5 129t-195.5 334q-6 45 -53 45h-115q-28 0 -39 16t-2 42z" />
<glyph unicode="&#x2122;" d="M80 1446q0 -47 49 -47h100q53 0 50 -51l-25 -381q-3 -52 49 -52h70q52 0 49 52l-25 381q-3 51 49 51h103q49 0 49 47t-49 47h-420q-49 0 -49 -47zM684 967q-3 -52 49 -52h70q52 0 49 52l-16 262q-2 36 20 40.5t37 -28.5l98 -237q18 -37 60 -37h10q43 0 57 39l92 229 q13 32 36.5 27t21.5 -39l-17 -256q-3 -52 49 -52h70q49 0 49 52l-16 477q0 49 -51 49h-80q-43 0 -60 -35l-120 -225q-15 -28 -34.5 -28t-33.5 28l-113 223q-16 37 -59 37h-84q-46 0 -49 -47z" />
<glyph unicode="&#x25fc;" horiz-adv-x="1116" d="M0 0v1116h1116v-1116h-1116z" />
<glyph unicode="&#xfb01;" d="M205 1036q0 -49 51 -49h74q51 0 51 -51l-19 -885q-3 -51 50 -51h143q49 0 49 51l-26 885q0 51 49 51h383q51 0 51 -51l-19 -885q-3 -51 50 -51h133q51 0 51 51l-29 1020q-3 49 -51 49h-569q-52 0 -52 49v50q0 176 146 192q30 3 61 8l103 25q43 9 43 53v55q0 53 -54 47 l-131 -14q-186 -30 -274 -119.5t-88 -267.5v-29q0 -49 -49 -49h-76q-51 0 -51 -51v-33zM1061 1370q0 -49 49 -49h86q49 0 49 49v133q0 51 -49 51h-86q-49 0 -49 -51v-133z" />
<glyph unicode="&#xfb02;" d="M170 1026q0 -49 49 -49h66q49 0 49 -51l-27 -875q-3 -51 49 -51h193q49 0 49 51l-55 875q-3 51 49 51h190q52 0 52 49v43q0 51 -52 51h-194q-48 0 -51 47l-7 72q0 104 38.5 144t138.5 40h278q49 0 49 -51v-1323q0 -49 51 -49h195q51 0 51 49l-2 111q0 51 -29 51l-30 -2 q-49 0 -49 49v1247q0 51 -52 51h-460q-190 0 -277.5 -85.5t-87.5 -272.5l-2 -31q-6 -47 -53 -47h-70q-49 0 -49 -51v-43z" />
</font>
</defs>
</svg>
